<svg viewBox="0 0 1080 935.31" xmlns="http://www.w3.org/2000/svg">
    <path d="M798.45 20l258.45 447.65L798.45 915.3h-516.9L23.09 467.65 281.55 20h516.9M810 0H270L0 467.65 270 935.3h540l270-467.65L810 0z" fill="#8dc63f"/>
    <path d="M672.84 250.06H532.68c-7.17 0-12.98 5.81-12.98 12.98s5.81 12.98 12.98 12.98h127.18v124.56c0 66.09-53.77 119.86-119.86 119.86s-119.86-53.77-119.86-119.86V276.02h49.88c7.17 0 12.98-5.81 12.98-12.98s-5.81-12.98-12.98-12.98h-62.87c-7.17 0-12.98 5.81-12.98 12.98v137.54c0 80.41 65.42 145.83 145.83 145.83s145.83-65.42 145.83-145.83V263.04c0-7.17-5.81-12.98-12.98-12.98z" fill="#fff"/>
    <path d="M642.28 347.86c-5.43-26.64-25.9-43.86-52.14-43.86-15.74 0-32.92 6.17-50.14 17.94-17.22-11.77-34.41-17.94-50.14-17.94-26.24 0-46.71 17.22-52.14 43.86-4.45 21.82 1.51 46.3 16.78 68.94 17.05 25.29 44.86 46.64 80.42 61.76 1.62.69 3.35 1.04 5.08 1.04s3.46-.34 5.08-1.04c35.56-15.12 63.37-36.48 80.42-61.76 15.27-22.64 21.23-47.13 16.79-68.94zM539.99 452.44c-70.15-31.77-81.07-78.63-76.84-99.4 2.99-14.67 12.72-23.08 26.7-23.08 8.58 0 22.86 3.17 42.13 18.29a12.975 12.975 0 0016.02 0c19.27-15.11 33.55-18.29 42.13-18.29 13.98 0 23.72 8.41 26.7 23.08 4.23 20.77-6.69 67.63-76.85 99.4z" fill="#fff"/>
    <circle cx="540" cy="214.95" r="13.46" fill="#fff"/>
    <path d="M787.43 285.33a102.18 102.18 0 00-51.98-32.11C720.87 158.45 638.78 85.65 540 85.65c-44.52 0-86.55 14.45-121.57 41.78-5.65 4.41-6.66 12.57-2.24 18.22 4.41 5.65 12.57 6.66 18.22 2.24 30.41-23.74 66.93-36.28 105.6-36.28 88.72 0 161.94 67.6 170.87 154 .14 1.4.28 2.92.4 4.38 3.7 47.52.52 96.35.52 144v6.95c0 71.22-46.61 137.5-113.64 161.65-3.27 1.18-6.58 2.25-9.92 3.22-27.28 7.92-56.41 9.02-84.21 3.11-66.74-14.16-120.77-70.54-133.06-137.49a169.502 169.502 0 01-2.76-30.49V283.4c0-5.06.3-10.1.68-15.14 2.69-30.92 13.58-60.26 31.95-85.59 4.21-5.8 2.92-13.92-2.89-18.13-5.8-4.21-13.92-2.92-18.13 2.89-18.61 25.67-30.57 54.89-35.28 85.79a102.22 102.22 0 00-51.97 32.11c-16.07 18.54-24.92 42.29-24.92 66.85s8.85 48.31 24.92 66.85c13.71 15.83 31.91 27 51.97 32.11 11.21 72.86 62.34 132.73 130.27 156.51v35.91a193.77 193.77 0 00-32.69 8c-12.8 4.35-25.13 10.06-36.75 16.96-59.1 35.09-95.81 99.53-95.81 168.16 0 7.17 5.81 12.98 12.98 12.98h434.92c7.17 0 12.98-5.81 12.98-12.98 0-68.63-36.71-133.07-95.81-168.16-.07-.04-.14-.07-.2-.1-.05-.03-.1-.07-.15-.1a194.775 194.775 0 00-34.64-16.13 194.06 194.06 0 00-34.45-8.62v-35.91c67.93-23.79 119.06-83.65 130.27-156.51 20.07-5.11 38.26-16.28 51.98-32.11 16.07-18.54 24.92-42.29 24.92-66.85s-8.85-48.3-24.92-66.85zM342.26 423.19c-28.6-11.19-48.64-39.31-48.64-71.01s20.04-59.83 48.64-71.01c0 .75-.01 1.49-.01 2.24v137.54c0 .74 0 1.49.01 2.24zm56.76 400.5h-62.99c3.63-46.65 26.69-90.01 62.99-119.23v119.23zm281.97-119.24c36.3 29.23 59.35 72.59 62.99 119.24h-62.99V704.45zm-49.93-27.77c8.2 2.87 16.23 6.42 23.97 10.58V823.7H424.99V687.25c7.73-4.15 15.75-7.7 23.91-10.55l1.65-.57c12.33-4.18 25.27-6.93 38.47-8.17 6.67-.63 11.77-6.22 11.77-12.92v-40.23c.01.24 4.17.79 4.53.85 1.67.3 3.35.57 5.03.83 9.81 1.48 19.74 2.22 29.66 2.22s19.3-.72 28.66-2.08c3.53-.52 7.06-1.11 10.56-1.82v40.22c0 6.7 5.1 12.3 11.77 12.92 13.73 1.29 27.21 4.23 40.06 8.73zm106.69-253.49c.17-15.18.01-30.38.01-45.57v-72.4c0-1.99.01-24.06-.01-24.06 28.6 11.18 48.64 39.31 48.64 71.01s-20.04 59.83-48.64 71.01z" fill="#fff"/>
</svg>
