<svg viewBox="0 0 1080 935.31" xmlns="http://www.w3.org/2000/svg">
    <path d="M798.45 20l258.45 447.65L798.45 915.3h-516.9L23.09 467.65 281.55 20h516.9M810 0H270L0 467.65 270 935.3h540l270-467.65L810 0z" fill="#8dc63f"/>
    <path d="M930.49 622l-24.92-53.66c-3.56-7.76-11.33-12.61-19.74-12.61H767.07v-31.68h58.41c11.97 0 21.84-9.7 21.84-21.82s-9.71-21.82-21.84-21.82h-58.41v-33.94h118.76c8.58 0 16.18-5.01 19.74-12.61l24.75-53.82c5.02-10.99.32-23.92-10.68-28.93-11-5.01-23.95-.16-28.96 10.67l-18.93 41.21H767.07v-36.04h58.41c11.97 0 21.84-9.7 21.84-21.82s-9.71-21.82-21.84-21.82h-58.41v-19.56c0-34.59-28.15-62.71-62.78-62.71h-23.3v-58.67c0-11.96-9.71-21.82-21.84-21.82s-21.84 9.7-21.84 21.82v58.67h-36.08V136.15l41.1-18.91c11-5.01 15.69-17.94 10.68-28.93-5.02-10.99-17.96-15.68-28.96-10.67l-53.72 24.73c-7.77 3.56-12.62 11.31-12.62 19.72v118.79h-33.98v-58.51c0-11.96-9.71-21.82-21.84-21.82s-21.84 9.7-21.84 21.82v58.67h-31.71V122.27c0-8.57-5.02-16.16-12.62-19.72l-53.88-24.73c-11-5.01-23.95-.16-28.96 10.67-5.02 10.99-.32 23.92 10.68 28.93l41.1 18.91v104.89h-28.64c-31.71 0-61.64 25.05-63.26 44.93v37.33h-58.41c-11.97 0-21.84 9.7-21.84 21.82s9.71 21.82 21.84 21.82h58.41V403H208.08l-18.93-41.05c-5.02-10.99-17.96-15.68-28.96-10.67s-15.69 17.94-10.68 28.93l24.75 53.66c3.56 7.76 11.33 12.61 19.74 12.61h118.76v33.94h-58.41c-11.97 0-21.84 9.7-21.84 21.82s9.71 21.82 21.84 21.82h58.41v31.68h-118.6c-8.58 0-16.18 5.01-19.74 12.61l-24.75 53.82c-5.02 10.99-.32 23.92 10.68 28.93 11 5.01 23.95.16 28.96-10.67l18.93-41.05h104.68v16.49c.81 58.02 34.62 78.55 63.26 78.55h28.64v104.89l-41.26 18.75c-11 5.01-15.69 17.94-10.68 28.93s17.96 15.68 28.96 10.67l53.88-24.73c7.77-3.56 12.62-11.31 12.62-19.72V694.42h31.71v58.67c0 11.96 9.71 21.82 21.84 21.82s21.84-9.7 21.84-21.82v-58.67h33.98v118.79c0 8.57 5.02 16.16 12.62 19.72l53.88 24.73c11 5.01 23.95.16 28.96-10.67 5.02-10.99.32-23.92-10.68-28.93l-41.1-18.91V694.26h36.08v58.67c0 11.96 9.71 21.82 21.84 21.82s21.84-9.7 21.84-21.82v-58.67h23.3c34.62 0 62.78-28.12 62.78-62.71v-32.32h104.68l18.93 41.05c5.02 10.99 17.96 15.68 28.96 10.67s15.69-17.94 10.68-28.93zm-206.94 9.54h-.16c0 10.51-8.58 19.23-19.25 19.23H376.18c-17.31 0-19.58-24.89-19.74-35.4V293.26c3.4-3.23 11-8.73 19.74-8.73H704.3c10.52 0 19.25 8.57 19.25 19.23v327.77z" fill="#fff"/>
</svg>
