<svg viewBox="0 0 1080 935.31" xmlns="http://www.w3.org/2000/svg">
    <path d="M798.45 20l258.45 447.65L798.45 915.3h-516.9L23.09 467.65 281.55 20h516.9M810 0H270L0 467.65 270 935.3h540l270-467.65L810 0z" fill="#8dc63f"/>
    <path d="M400.65 389.1l127.33-59.37V218.11c-14.8-2.2-28.19-8.67-37.85-18.28l-203.99 98.54c2.43 5.67 3.74 11.75 3.74 18.11 0 5.32-.9 10.42-2.63 15.28l113.4 57.34zm78.67-204.72c-2.71-6.01-4.09-12.38-4.09-18.81 0-14.76 7.14-28.12 18.71-37.79 11.58-9.66 27.59-15.62 45.26-15.62s33.69 5.96 45.26 15.62c12.01 10.02 18.75 23.61 18.71 37.79 0 6.48-1.39 12.67-3.88 18.4l204.96 98.95c1.46-1.45 2.91-2.89 4.51-4.22 12-10.03 28.29-15.65 45.26-15.62 17.67 0 33.69 5.96 45.26 15.62 12.01 10.01 18.75 23.61 18.71 37.79 0 14.76-7.14 28.06-18.71 37.73-9.95 8.31-22.91 13.65-36.87 15.16V565.6c14.35 1.56 27.17 7.06 36.87 15.16 11.58 9.66 18.71 23.03 18.71 37.73.03 29.47-28.56 53.38-63.87 53.41h-.11c-19.22.02-37.42-7.18-49.56-19.62l-205.24 99.06c2.5 5.73 3.88 11.92 3.88 18.4 0 14.76-7.14 28.12-18.71 37.79-12 10.03-28.29 15.65-45.26 15.62-17.67 0-33.69-5.96-45.26-15.62-11.58-9.66-18.71-23.03-18.71-37.79 0-6.6 1.46-12.96 4.09-18.81L275.32 652.5c-12.15 12.34-30.29 19.47-49.42 19.44-17.67 0-33.69-5.96-45.26-15.62-11.51-9.66-18.65-23.03-18.65-37.79s7.14-28.06 18.71-37.73c9.84-8.22 22.61-13.54 36.39-15.16V369.31c-13.79-1.59-26.57-6.92-36.39-15.16-12.02-9.99-18.76-23.57-18.71-37.73 0-14.76 7.14-28.12 18.71-37.79 12-10.03 28.29-15.65 45.26-15.62 19.25-.03 37.49 7.2 49.63 19.67l203.71-98.31zm109.24 15.1c-9.71 9.89-23.37 16.52-38.47 18.69v111.56l127.05 61.45 116.79-56.36c-2.56-5.73-3.88-11.98-3.88-18.4s1.32-12.32 3.67-17.88l-205.17-99.06zm254.31 169.54c-12.93-1.88-24.84-7.05-34.1-14.81-1.32-1.1-2.56-2.2-3.74-3.41l-116.58 56.24v120.24l117.07 56.42c1.04-.98 2.08-1.97 3.19-2.89 9.27-7.75 21.18-12.92 34.1-14.81V369.03h.07zm-49 267.74c-2.5-5.67-3.81-11.8-3.81-18.17 0-6.71 1.46-13.14 4.23-19.1l-113.26-54.57-130.93 63.53v108.73c15.1 2.17 28.75 8.8 38.47 18.69l205.31-99.12zm-303.73 98.72c9.65-9.62 23.05-16.09 37.85-18.28V607.95L396.57 544.3l-111.53 53.76c3.12 6.31 4.92 13.25 4.92 20.54 0 6.48-1.39 12.67-3.88 18.4l204.06 98.48zm-253.55-169.6c13.38 1.85 25.37 7.23 34.59 14.93.69.58 1.32 1.16 1.94 1.74l113.6-54.74V403.58l-109.38-55.32c-1.87 2.14-3.95 4.11-6.17 5.96-9.4 7.85-21.48 13.06-34.59 14.93v196.74zm-10.54-214.5c.28 0 .55-.06.83-.06h.55c10.59-.28 20.66-3.92 28.14-10.18 7.86-6.55 12.28-15.44 12.27-24.71 0-9.66-4.71-18.4-12.27-24.71-7.56-6.31-18.02-10.24-29.6-10.24s-22.04 3.93-29.6 10.24c-7.86 6.55-12.28 15.44-12.27 24.71 0 9.66 4.71 18.4 12.27 24.71 7.86 6.57 18.54 10.26 29.67 10.24zm342.68 393.76c-7.84-6.56-18.49-10.25-29.6-10.24-11.58 0-22.04 3.93-29.6 10.24-7.56 6.31-12.27 15.04-12.27 24.71s4.71 18.4 12.27 24.71c7.56 6.31 18.02 10.24 29.6 10.24s22.04-3.93 29.6-10.24c7.56-6.31 12.27-15.04 12.27-24.71s-4.64-18.4-12.27-24.71zm0-604.27c-7.84-6.56-18.49-10.25-29.6-10.24-11.58 0-22.04 3.93-29.6 10.24-7.56 6.31-12.27 15.04-12.27 24.71s4.71 18.4 12.27 24.71c7.84 6.56 18.49 10.25 29.6 10.24 11.58 0 22.04-3.93 29.6-10.24 7.86-6.55 12.28-15.44 12.27-24.71 0-9.66-4.64-18.4-12.27-24.71zm314.82 453.02c-7.84-6.56-18.49-10.25-29.6-10.24-11.58 0-22.04 3.93-29.6 10.24-7.86 6.55-12.28 15.44-12.27 24.71 0 9.66 4.71 18.4 12.27 24.71 7.84 6.56 18.49 10.25 29.6 10.24 11.58 0 22.04-3.93 29.6-10.24 7.86-6.55 12.28-15.44 12.27-24.71 0-9.66-4.64-18.4-12.27-24.71zm-627.98 0c-7.56-6.31-18.02-10.24-29.6-10.24s-22.04 3.93-29.6 10.24c-7.86 6.55-12.28 15.44-12.27 24.71 0 9.66 4.71 18.4 12.27 24.71 7.56 6.31 18.02 10.24 29.6 10.24s22.04-3.93 29.6-10.24c7.86-6.55 12.28-15.44 12.27-24.71-.02-9.27-4.43-18.15-12.27-24.71zm561.09-261.67c.55.46.97 1.04 1.39 1.62s.69 1.16.97 1.79c1.59 1.97 3.4 3.82 5.34 5.5 7.84 6.56 18.49 10.25 29.6 10.24 11.58 0 22.04-3.93 29.6-10.24 7.86-6.55 12.28-15.44 12.27-24.71 0-9.66-4.71-18.4-12.27-24.71-7.84-6.56-18.49-10.25-29.6-10.24-11.58 0-22.04 3.93-29.6 10.24-7.86 6.55-12.28 15.44-12.27 24.71.07 5.73 1.73 11.05 4.57 15.8zM407.43 525.83c1.57 1.41 2.61 3.19 2.98 5.09l118.73 58.27V474.16l-121.71-60.47v112.14zm260.34-110.58l-117.9 58.96V589.3l117.9-58.15v-115.9zm-128.78-71.69l-115.06 57.46 115.68 58.15 112.36-56.94-112.98-58.67z" fill-rule="evenodd" fill="#fff"/>
</svg>
