<?xml version="1.0" standalone="no"?>
<!DOCTYPE svg PUBLIC "-//W3C//DTD SVG 20010904//EN"
 "http://www.w3.org/TR/2001/REC-SVG-20010904/DTD/svg10.dtd">
<svg version="1.0" xmlns="http://www.w3.org/2000/svg"
 width="670.000000pt" height="670.000000pt" viewBox="0 0 670.000000 670.000000"
 preserveAspectRatio="xMidYMid meet">
<metadata>
Created by potrace 1.14, written by Peter Selinger 2001-2017
</metadata>
<g transform="translate(0.000000,670.000000) scale(0.100000,-0.100000)"
fill="#000000" stroke="none">
<path d="M2417 5349 c-12 -7 -17 -21 -16 -42 2 -21 -10 -53 -34 -94 l-37 -61
0 -349 0 -349 105 -98 105 -97 0 -204 0 -203 -70 -68 -70 -68 0 -180 c0 -172
1 -184 25 -235 28 -60 100 -164 137 -199 19 -17 212 -92 237 -92 4 0 -21 17
-54 38 -63 40 -216 196 -266 271 l-29 44 0 172 0 171 65 58 65 57 0 82 0 82
165 211 165 212 0 116 c0 69 4 116 10 116 16 0 23 49 10 65 -7 8 -25 15 -40
15 -15 0 -33 -7 -40 -15 -13 -16 -6 -65 10 -65 6 0 10 -43 10 -106 l0 -105
-145 -186 -145 -185 0 289 0 289 40 39 40 39 0 206 c0 135 4 210 11 217 15 15
8 54 -12 66 -23 14 -66 1 -72 -22 -3 -11 1 -28 9 -38 10 -14 13 -65 14 -219
l0 -202 -35 -31 -35 -30 0 -167 c0 -97 -4 -164 -9 -162 -5 2 -41 34 -80 71
l-71 69 0 338 0 339 35 60 c20 34 43 61 51 61 8 0 20 11 26 25 9 21 8 28 -7
45 -20 22 -41 25 -68 9z"/>
<path d="M4220 5340 c-11 -11 -20 -24 -20 -30 0 -12 36 -50 48 -50 4 0 22 -26
40 -59 l32 -59 -1 -338 -1 -339 -79 -74 -79 -74 0 170 0 169 -35 34 -35 34 0
203 c0 112 4 203 9 203 16 0 19 38 4 59 -16 23 -52 28 -71 9 -15 -15 -16 -54
-2 -63 6 -4 10 -87 10 -218 l0 -212 40 -35 41 -35 -3 -289 -3 -289 -142 183
-143 183 0 104 c0 80 4 108 15 119 19 20 19 39 -1 58 -18 19 -55 21 -72 4 -17
-17 -15 -53 3 -68 12 -10 15 -37 15 -125 l0 -113 165 -212 165 -212 0 -82 0
-81 65 -58 65 -58 0 -157 c0 -131 -4 -164 -19 -197 -10 -22 -65 -92 -123 -156
-80 -87 -120 -123 -167 -148 -34 -18 -61 -35 -58 -37 2 -2 55 13 118 34 114
38 114 39 167 103 29 35 68 95 87 133 l35 69 0 186 0 187 -65 64 -65 64 0 207
0 207 99 94 100 93 7 347 7 346 -38 69 c-22 38 -37 80 -36 95 1 18 -6 32 -21
42 -29 20 -34 20 -58 -4z"/>
<path d="M1812 4998 c-17 -17 -15 -53 3 -68 13 -11 15 -56 9 -349 -6 -332 -6
-337 -32 -406 l-27 -70 -5 92 -5 92 -42 36 -43 37 0 212 0 212 -30 29 c-16 16
-30 37 -30 47 0 9 -11 25 -25 34 -23 15 -27 15 -50 0 -14 -9 -25 -25 -25 -36
0 -26 29 -53 51 -47 12 3 31 -6 49 -23 l30 -28 0 -209 0 -209 45 -44 45 -44 0
-81 c0 -44 -3 -130 -7 -192 l-6 -111 -93 75 -94 75 0 49 c0 26 5 51 10 54 14
9 13 48 -2 63 -29 29 -78 7 -78 -34 0 -13 5 -26 10 -29 6 -3 10 -34 10 -68 l1
-62 118 -89 118 -89 16 -120 c10 -74 25 -136 38 -164 12 -25 61 -87 108 -137
58 -63 104 -124 141 -190 30 -54 74 -119 97 -143 l41 -45 -30 -16 c-16 -10
-65 -43 -109 -75 l-79 -57 21 -29 c26 -36 127 -117 190 -154 66 -38 180 -73
285 -87 83 -11 98 -11 181 9 50 11 96 21 102 21 17 0 13 -68 -9 -140 -11 -36
-20 -81 -20 -101 0 -44 26 -122 57 -173 14 -21 33 -57 43 -80 9 -23 56 -105
104 -183 110 -180 128 -220 166 -373 50 -195 86 -258 185 -316 33 -19 58 -25
99 -25 70 0 118 22 178 83 54 55 75 105 118 278 32 133 50 170 159 349 43 69
105 182 139 250 56 112 62 131 62 187 0 34 -7 81 -15 104 -8 23 -15 65 -15 92
0 47 2 50 23 45 203 -43 183 -42 308 -20 85 15 139 31 200 60 108 51 249 164
249 200 0 10 -114 95 -170 127 l-40 23 26 24 c14 13 60 79 102 147 50 80 104
150 153 200 99 101 123 153 144 307 9 66 17 120 18 121 1 0 49 36 107 80 57
43 108 81 112 85 4 3 10 27 13 55 4 27 11 66 17 86 13 46 -1 68 -43 68 -40 0
-60 -41 -35 -69 12 -13 16 -32 14 -62 -3 -42 -7 -47 -93 -115 -60 -48 -92 -68
-97 -61 -4 7 -8 94 -8 194 l0 182 45 37 45 36 0 212 0 212 28 27 c16 15 40 27
54 27 33 0 52 23 44 54 -12 48 -83 45 -92 -4 -4 -15 -19 -37 -35 -49 l-29 -22
0 -212 0 -213 -50 -49 -49 -48 -3 -76 -3 -76 -27 70 -28 70 0 333 c0 210 4
332 10 332 16 0 23 49 10 65 -15 18 -61 20 -78 3 -16 -16 -15 -43 3 -58 13
-11 15 -63 15 -354 l0 -341 45 -117 c40 -105 45 -126 45 -200 0 -80 -17 -202
-40 -286 -12 -48 -86 -133 -135 -156 -32 -16 -36 -16 -60 0 -30 20 -73 108
-81 167 -7 52 -3 67 82 285 l64 164 0 113 c0 65 4 116 10 120 6 3 10 20 10 36
0 37 -35 57 -69 40 -22 -12 -30 -64 -11 -76 6 -4 10 -56 10 -124 0 -98 -4
-127 -22 -170 l-21 -52 -34 33 -34 33 7 400 c3 220 10 404 15 410 5 5 9 22 9
37 0 36 -36 56 -69 39 -22 -12 -30 -64 -11 -76 6 -4 10 -156 10 -423 l0 -417
45 -40 46 -40 -50 -115 c-28 -64 -55 -139 -60 -167 -10 -53 -10 -53 34 -205
21 -69 12 -138 -25 -214 -43 -90 -67 -113 -122 -120 l-47 -7 29 74 c40 105 64
254 56 355 -8 92 -35 216 -65 292 -17 44 -21 75 -21 183 l0 130 32 27 c17 15
43 29 57 32 21 4 27 12 29 37 3 27 -1 35 -21 44 -30 14 -67 -3 -67 -29 0 -10
-16 -33 -35 -52 l-35 -34 0 -150 c0 -132 3 -158 24 -220 58 -168 61 -247 19
-416 -44 -182 -99 -267 -193 -302 -25 -9 -104 -37 -177 -63 l-132 -47 -103 96
c-119 112 -103 108 -293 66 -113 -25 -184 -22 -313 11 -115 29 -123 28 -200
-42 -37 -34 -80 -77 -97 -96 l-30 -34 -140 49 c-253 88 -285 110 -328 219 -38
97 -67 216 -73 303 -7 80 15 190 56 285 17 40 20 69 20 194 l0 147 -34 34
c-19 18 -36 42 -38 53 -4 27 -30 41 -61 33 -48 -12 -46 -73 3 -83 15 -3 42
-18 59 -33 l31 -29 0 -116 c0 -107 -3 -126 -34 -218 -46 -135 -70 -273 -61
-357 10 -99 34 -208 61 -274 l24 -58 -41 6 c-23 4 -49 11 -58 15 -27 15 -79
112 -96 179 -19 73 -15 114 21 209 13 35 24 78 24 96 0 46 -26 130 -65 207
-53 105 -53 107 -6 147 l41 35 0 418 c0 359 2 419 15 430 18 15 20 51 3 68
-19 19 -55 14 -72 -10 -14 -20 -14 -25 -1 -45 13 -19 15 -86 15 -426 l0 -403
-30 -29 c-16 -16 -31 -27 -34 -24 -2 2 -13 30 -25 62 -27 73 -31 256 -6 277
18 15 20 51 3 68 -31 31 -96 -6 -83 -47 3 -12 11 -21 16 -21 5 0 9 -53 9 -122
l0 -123 71 -180 c66 -168 70 -184 66 -241 -5 -71 -45 -154 -82 -174 -19 -10
-30 -10 -54 0 -39 16 -108 90 -127 137 -24 57 -44 190 -44 296 0 92 2 103 45
209 l45 112 0 339 c0 287 2 341 15 353 19 20 19 39 -1 58 -18 19 -55 21 -72 4z
m749 -2103 c63 -21 138 -90 136 -126 0 -13 2 -38 6 -54 l8 -31 -98 -22 c-94
-21 -102 -21 -191 -6 -104 17 -197 48 -263 90 -67 41 -141 106 -132 114 20 19
210 54 338 62 56 4 135 -7 196 -27z m1889 14 c87 -10 209 -37 223 -49 14 -12
-121 -110 -202 -148 -52 -24 -110 -41 -186 -53 l-110 -19 -95 23 c-68 17 -94
27 -92 37 2 8 7 34 12 58 15 82 105 143 235 160 63 8 79 7 215 -9z m-1030
-284 c35 -72 19 -162 -41 -234 -19 -23 -20 -23 -41 -5 -30 27 -68 113 -68 154
0 41 32 115 62 148 l22 22 23 -22 c12 -12 32 -40 43 -63z m-554 -200 c77 -23
123 -74 159 -174 l12 -36 -57 1 c-113 3 -158 34 -209 144 -26 58 -27 66 -13
72 27 11 55 9 108 -7z m1073 6 c12 -8 8 -23 -21 -84 -46 -97 -89 -125 -195
-130 -60 -2 -69 0 -64 13 42 93 72 138 108 164 56 39 140 57 172 37z m-639
-963 c40 -9 61 -9 100 1 62 16 86 4 100 -48 13 -48 5 -69 -26 -77 -13 -3 -24
-13 -24 -22 0 -36 -31 -52 -97 -52 -76 0 -103 12 -103 45 0 17 -6 25 -18 25
-44 0 -55 53 -22 108 22 36 21 36 90 20z"/>
<path d="M2606 2265 c-109 -135 -156 -259 -163 -441 -3 -67 -3 -138 1 -157 l7
-35 27 25 c29 28 97 62 123 63 15 0 15 -5 -2 -61 -47 -150 -44 -336 7 -489 40
-119 94 -206 94 -152 0 22 52 111 78 135 20 18 20 18 37 -39 62 -213 256 -433
483 -548 l54 -27 74 42 c220 126 375 305 445 512 l26 77 35 -38 c19 -22 43
-60 53 -87 19 -47 19 -47 36 -26 28 34 76 160 93 243 27 129 19 279 -21 401
-8 27 -12 51 -9 54 9 10 94 -27 127 -54 16 -14 32 -23 35 -20 3 3 8 45 11 93
13 205 -65 431 -190 552 l-33 32 18 -87 c18 -88 22 -249 9 -308 l-7 -30 -41
63 -41 64 6 -135 c7 -187 -22 -359 -86 -507 l-19 -45 -38 120 c-20 66 -40 123
-44 127 -3 4 -25 -36 -49 -90 -55 -127 -116 -234 -205 -357 -96 -134 -181
-244 -188 -245 -11 0 -139 167 -225 296 -80 118 -152 251 -198 364 l-18 45
-41 -122 c-23 -68 -44 -123 -48 -123 -10 0 -58 135 -80 225 -24 96 -35 297
-21 380 5 33 9 61 7 63 -1 1 -20 -24 -41 -57 -21 -33 -41 -58 -45 -55 -24 15
-15 284 13 372 5 18 8 36 5 38 -3 3 -26 -20 -51 -51z"/>
</g>
</svg>
