<svg xmlns="http://www.w3.org/2000/svg" width="400" height="225"><g fill-rule="evenodd"><path d="M0 112.5V225h400V0H0v112.5m177.741-62.125c.158.737.891 9.687.808 9.862-.047.099-2.671 1.905-5.832 4.013-3.161 2.108-5.774 3.876-5.806 3.928-.056.089 7.934 12.734 8.238 13.037.079.08 1.564-1.477 3.346-3.508l3.203-3.652 2.888-1.123c4.461-1.735 4.414-1.768 2.278 1.608-2.492 3.941-6.186 10.176-6.106 10.306.042.068.769.531 1.617 1.03 14.313 8.424 15.086 8.917 16.395 10.469 1.345 1.593 1.078 1.593 2.458.001 1.252-1.444 2.408-2.186 13.605-8.737 2.92-1.708 4.409-2.671 4.395-2.842-.025-.279-3.363-5.994-5.85-10.014-2.111-3.412-2.128-3.382 1.21-2.07 1.189.467 2.521.973 2.959 1.125.72.249 1.107.631 3.983 3.942 1.752 2.017 3.231 3.683 3.286 3.702.055.02 1.863-2.708 4.017-6.063l4.208-6.551.292-.452-4.458-3.063a4487.978 4487.978 0 00-5.918-4.061c-1.379-.944-1.454-1.027-1.374-1.505.047-.279.277-2.53.511-5.003.563-5.948.55-5.942 2.538-1.251l1.305 3.08 5.24 3.027c2.882 1.665 5.282 3.034 5.335 3.042.052.008.31-1.823.573-4.069.496-4.233.559-4.525.947-4.376.191.073 5.143 11.952 5.137 12.321-.001.062-3.034 4.889-6.74 10.728l-6.738 10.617-8.387 5.253c-4.613 2.889-8.82 5.515-9.349 5.835-.529.32-1.006.653-1.059.739-.21.341-1.011 3.467-.888 3.467.073 0 1.509-.826 3.191-1.834l3.06-1.834 6.329-1.094c3.481-.601 7.304-1.269 8.495-1.483 2.848-.513 2.668-.803 2.164 3.496-.226 1.924-.412 3.745-.412 4.045-.001.432-.37 1.047-1.749 2.917a3495.26 3495.26 0 00-4.012 5.453c-2.855 3.888-2.123 3.308-7.157 5.666-2.384 1.117-4.378 2.08-4.432 2.141-.054.06.921 4.372 2.167 9.582l2.265 9.471-1.622 8.112c-.892 4.461-1.625 8.262-1.63 8.445-.004.183-2.312 3.555-5.129 7.492l-5.121 7.158-3.166 2.037c-1.741 1.121-3.28 2.043-3.42 2.05-.141.007-1.696-.915-3.457-2.05l-3.201-2.062-2.394-3.396-5.086-7.213c-1.48-2.1-2.691-3.937-2.692-4.083 0-.147-.71-3.922-1.577-8.389l-1.577-8.124 1.931-7.96 2.308-9.52.379-1.56-.44-.247c-.242-.136-2.277-1.124-4.523-2.196l-4.083-1.948-4.088-5.609-4.087-5.608-.461-4.205c-.479-4.37-.467-4.603.219-4.403.364.105 16.191 2.919 16.421 2.919.107 0 1.606.863 3.332 1.916 1.725 1.054 3.168 1.886 3.205 1.849.097-.098-.777-3.317-.947-3.487-.078-.078-4.307-2.779-9.398-6.002l-9.255-5.859-3.24-5.167c-1.782-2.841-4.787-7.629-6.679-10.64-1.891-3.011-3.439-5.558-3.439-5.662 0-.103 1.023-2.665 2.273-5.693 1.25-3.028 2.371-5.748 2.491-6.046.204-.505.61-.714.798-.41.045.073.276 1.892.514 4.042s.449 4.003.47 4.117c.022.122 1.668-.717 4.037-2.06 2.2-1.247 4.602-2.6 5.336-3.008l1.336-.74.899-2.116c1.758-4.139 1.873-4.367 2.198-4.367.185 0 .341.15.389.375m-1.675 3.906l-1.017 2.365.684.637c.376.35.973.899 1.327 1.219l.644.581-.12-1.583c-.065-.871-.205-2.483-.31-3.583l-.191-2-1.017 2.364m47.044-1.948c-.141.441-.645 6.521-.548 6.618.051.051.64-.382 1.307-.964a84.344 84.344 0 011.275-1.097c.034-.022-.392-1.112-.946-2.423-.554-1.311-1.044-2.271-1.088-2.134m-53.893 7.896c-4.731 2.693-5.637 3.239-5.045 3.039.134-.045 3.057-.806 6.495-1.69 3.437-.884 6.311-1.665 6.386-1.737.121-.116-2.511-2.528-2.72-2.492-.046.008-2.348 1.304-5.116 2.88m55.176-1.625c-.72.62-1.345 1.154-1.388 1.187-.182.14.529.379 3.306 1.107 1.617.424 4.475 1.178 6.353 1.675 1.878.498 3.437.882 3.465.854.054-.055-9.71-5.674-10.158-5.846-.181-.069-.698.266-1.578 1.023m-62.279-.187c-.208.921-.786 5.133-.714 5.205.374.374 1.402-.753 1.325-1.452-.396-3.579-.503-4.232-.611-3.753m75.575 1.798c-.118 1.119-.254 2.236-.303 2.481-.082.408 1.114 1.36 1.377 1.096.085-.085-.66-5.411-.773-5.524-.048-.048-.183.828-.301 1.947m-78.041 1.573c-.789 1.904-1.414 3.486-1.391 3.515.184.227 2.06-1.018 2.143-1.423.209-1.018.784-5.245.734-5.395-.029-.087-.698 1.399-1.486 3.303m79.356-3.121c-.013.528.69 5.268.833 5.619.148.362 1.778 1.321 1.952 1.148.077-.078-2.271-6.093-2.641-6.767-.123-.223-.139-.223-.144 0m-70.627 4.388c-3.872 1.024-7.039 1.937-7.038 2.028.005.304 2.446 4.001 2.618 3.966.166-.035 11.309-7.456 11.618-7.738.246-.224.276-.232-7.198 1.744m59.176.403c6.044 4.147 8.655 5.87 8.78 5.792.311-.192 2.525-3.958 2.395-4.074-.137-.124-13.813-3.845-14.125-3.843-.081 0 1.246.957 2.95 2.125m-68.345 2.337c-1.114.561-1.187.45 1.079 1.659 2.341 1.248 2.293 1.274 1.131-.604-1.046-1.69-.996-1.667-2.21-1.055m79.471 1.309c-.564.882-1.004 1.622-.978 1.643.074.058 4.128-2.151 4.123-2.247-.005-.094-1.849-1.015-2.013-1.006-.058.003-.567.728-1.132 1.61m-79.93.579c.542.955 9.491 15.132 9.528 15.095.026-.026-1.069-2.893-2.434-6.371l-2.482-6.324-.722-.426c-1.805-1.067-4.011-2.185-3.89-1.974m80.464 1.208c-2.733 1.487-2.106.52-4.935 7.609-2.851 7.143-2.785 6.96-2.143 6 1.148-1.716 9.363-14.725 9.323-14.764-.023-.023-1.033.497-2.245 1.155m-73.933.358c-1.025.699-1.324.214 3.014 4.876 3.525 3.788 4.08 4.352 3.767 3.833-.514-.852-5.779-9.064-5.867-9.15-.061-.059-.472.139-.914.441m67.826.95c-4.264 6.576-5.248 8.167-4.77 7.718 1.363-1.28 7.346-7.758 7.273-7.875-.045-.073-.424-.379-.843-.679l-.762-.547-.898 1.383M165 71.917c0 .214 5.349 13.8 5.499 13.968.067.074.3-.371.519-.991l.399-1.125 1.554-.908 1.555-.907-.735-.769c-.562-.587-7.269-7.775-8.566-9.179-.124-.134-.225-.174-.225-.089m65.403 5.021c-2.559 2.715-4.677 4.999-4.705 5.073-.029.075.629.534 1.462 1.021l1.514.885.362 1.125c.2.618.404 1.124.455 1.123.119-.003 5.711-14.018 5.627-14.102-.034-.035-2.156 2.159-4.715 4.875m-45.611-3.218c-.985.383-1.792.74-1.792.793 0 .086 1.229 1.034 1.765 1.361.173.106 1.021-1.044 1.967-2.666.171-.295.061-.266-1.94.512m28.98.238c.339.527.761 1.202.939 1.5.408.687.45.683 1.554-.15 1.076-.813 1.129-.735-1.098-1.617-2.188-.866-2.13-.877-1.395.267m-31.516 1.584c-.33 1.476-1.265 6.681-1.223 6.808.052.155 3.384-5.304 3.384-5.545 0-.415-2.079-1.63-2.161-1.263m34.411.475c-.505.368-.941.736-.969.817-.056.156 3.303 5.887 3.396 5.794.03-.03-.24-1.665-.601-3.633-.36-1.968-.656-3.597-.658-3.62-.007-.141-.363.054-1.168.642m-37.092 1.689a843.587 843.587 0 01-2.702 3.074l-1.059 1.196 1.845 1.095c1.015.603 1.902 1.096 1.971 1.096.116 0 1.727-8.196 1.63-8.295-.024-.024-.782.801-1.685 1.834m39.265-1.508c.013.45 1.434 7.965 1.522 8.053.097.097 3.805-2.033 3.805-2.185 0-.111-4.971-5.862-5.179-5.99-.085-.053-.152.003-.148.122m-45.137 7.17c-1.164.672-1.198.709-.833.908.209.114 3.792 2.112 7.963 4.44l7.584 4.233.75-.29a85.307 85.307 0 001.314-.52l.564-.231-2.148-1.258c-1.181-.691-3.625-2.133-5.432-3.203-1.807-1.071-3.318-1.947-3.356-1.947-.039 0-1.148-.637-2.465-1.415-2.81-1.66-2.426-1.591-3.941-.717m49.395.405c-1 .6-2.203 1.29-2.674 1.534-2.073 1.072-11.402 6.613-11.294 6.707.066.056.635.305 1.265.552l1.144.448 5.439-2.985c9.766-5.362 10.494-5.773 10.423-5.888-.057-.092-2.094-1.301-2.401-1.425-.046-.018-.902.457-1.902 1.057m-51.583 2.093c-.191.567-.348 1.123-.348 1.234 0 .111 3.168 2.208 7.041 4.66s7.417 4.699 7.875 4.994c2.546 1.637 2.75 1.746 2.75 1.471 0-.726-.71-4.331-.884-4.49-.219-.201-15.856-8.902-15.997-8.902-.048 0-.245.465-.437 1.033m54.485.195c-1.054.583-4.617 2.537-7.917 4.344-3.3 1.807-6.051 3.336-6.114 3.398-.23.23-.937 4.72-.73 4.641.22-.085 16.582-10.308 17.291-10.804l.446-.312-.375-1.113c-.475-1.408-.344-1.4-2.601-.154m-35.25 6.884c-.55.229-1.063.476-1.14.55-.077.075 1.077.857 2.564 1.739l2.705 1.604.583-.461c1.401-1.107 1.516-.836-1-2.349-2.753-1.657-2.505-1.585-3.712-1.083m14.915 1.007l-2.382 1.429.817.72c1.027.905.627.997 3.843-.889l2.765-1.621-.562-.231c-.31-.126-.908-.366-1.331-.533l-.768-.304-2.382 1.429m-16.569.836c.048.254.224 1.249.391 2.212.223 1.293.362 1.738.532 1.703.376-.077 3.988-1.418 3.941-1.463-.057-.053-4.29-2.558-4.665-2.76-.249-.133-.276-.091-.199.308m19.363 1.012c-1.351.789-2.401 1.483-2.333 1.542.241.209 3.931 1.49 4.023 1.398.085-.085.849-4.286.791-4.349-.013-.015-1.129.619-2.481 1.409m-11.876.771c-.756.642-.869.542 1.05.921 1.283.254 1.285.251.517-.659-.832-.987-.732-.97-1.567-.262m5.226.291l-.722.862.573-.114c.315-.063.97-.162 1.456-.219 1.056-.124 1.079-.209.235-.877-.811-.642-.69-.669-1.542.348m-34.476 1.291c0 .423.659 6.229.712 6.279.065.06 9.352.893 9.402.843.048-.047-9.728-7.31-9.979-7.414-.074-.03-.135.101-.135.292m3.5.082c2.113 1.088 11.687 5.468 11.77 5.385.35-.351.488-3.466.156-3.545-.484-.115-12.474-2.243-12.585-2.234-.05.004.247.182.659.394m24.422 1.122a29.968 29.968 0 00-.058 2.893l.053 1.5 1.958-2.497c2.332-2.971 2.271-2.641.531-2.893a53.948 53.948 0 01-1.9-.301l-.473-.094-.111 1.392m7.196-1.061c-1.96.308-1.998.023.424 3.153l1.875 2.425.054-1.229c.1-2.263-.129-4.648-.445-4.625-.152.01-1.01.135-1.908.276m20.638.81c-3.388.593-6.175 1.092-6.191 1.111-.017.018.059.82.168 1.783.231 2.035.008 1.957 2.434.84.963-.443 3.137-1.441 4.833-2.218 4.892-2.241 5.605-2.593 5.25-2.593-.183.001-3.105.485-6.494 1.077m4.375 2.53c-2.724 1.988-4.955 3.653-4.958 3.702-.003.048 1.888-.079 4.202-.283 2.315-.204 4.441-.375 4.724-.38l.515-.008.284-2.459.383-3.333c.131-1.158.471-1.341-5.15 2.761m-35.547-2.756c-1.009.373-1.861.698-1.894.722-.07.054.644 2.877.812 3.207.074.147.548-.463 1.358-1.75a255.11 255.11 0 011.545-2.434c.37-.564.413-.57-1.821.255m14.449-.073c1.529 2.549 2.567 4.184 2.657 4.188.113.005.769-2.297.848-2.972.038-.329-3.103-1.848-3.839-1.856-.028 0 .122.288.334.64m-35.685.417c.856.705 8.455 6.163 8.581 6.164.098 0 .763-.212 1.477-.473l1.299-.473-.739-.376c-2.467-1.253-10.969-5.131-10.618-4.842m23.264.568l-1.418 2.258c-.565.899-1.027 1.693-1.027 1.765 0 .14 2.626.786 2.729.671.081-.092.248-5.319.169-5.319-.033 0-.237.281-.453.625m11.561.708c-.002.779.043 2.024.101 2.767l.105 1.35 1.352-.334c.744-.183 1.381-.356 1.415-.384.063-.052-2.257-3.886-2.713-4.482-.236-.308-.256-.223-.26 1.083m21.57-.277a631.13 631.13 0 01-5.616 2.599c-1.893.865-3.411 1.623-3.373 1.684.218.353 2.64 1.036 2.961.836.615-.384 8.285-6.038 8.285-6.107 0-.087.248-.195-2.257.988m-29.572 2.097c-1.052 1.37-1.933 2.552-1.958 2.627-.025.075.836.676 1.913 1.336l1.958 1.199.047-1.908a97.598 97.598 0 000-3.826l-.047-1.918-1.913 2.49m2.853 1.207c.015 2.048.056 3.776.09 3.84.047.087 3.635-1.957 4.027-2.294.082-.07-3.803-5.144-3.99-5.212-.091-.033-.142 1.464-.127 3.666m-16.42-2.885c-.035.059-.113.633-.174 1.275-.06.641-.151 1.373-.2 1.625l-.089.458 1.388-.019c.763-.01 2.081-.066 2.928-.125l1.54-.106-2.666-1.608c-1.466-.884-2.693-1.559-2.727-1.5m29.269 1.58l-2.543 1.528.877.106c2.151.26 4.987.288 4.895.048-.049-.128-.14-.909-.203-1.735-.137-1.822.101-1.826-3.026.053m-28.248 2.568c-.618.032-1.125.127-1.125.21 0 .224 3.559 6.997 3.635 6.92.036-.036.647-1.682 1.358-3.659l1.291-3.594-2.017.032c-1.109.018-2.523.059-3.142.091m5.953.085c-.717 1.909-2.232 6.193-2.2 6.225.023.023 1.182-1.244 2.574-2.815 1.392-1.572 2.504-2.885 2.471-2.918-.067-.067-2.434-.693-2.636-.697-.072-.002-.166.09-.209.205m16.535.125c-.626.167-1.178.343-1.226.391-.098.098 4.824 5.762 4.928 5.673.138-.117-2.202-6.397-2.378-6.382-.103.008-.699.151-1.324.318m2.417-.152c.047.129.64 1.792 1.317 3.694 1.048 2.945 1.487 3.927 1.487 3.33 0-.07.787-1.616 1.75-3.436 2.066-3.904 2.006-3.603.708-3.603a86.11 86.11 0 01-3.195-.111c-1.817-.092-2.14-.073-2.067.126m-28.441.677c-.731.271-1.354.518-1.385.549-.031.031 1.277 1.185 2.907 2.565 1.631 1.38 2.99 2.483 3.021 2.451.059-.058-2.917-5.754-3.108-5.949-.059-.06-.705.113-1.435.384m34.02 2.672c-.882 1.666-1.586 3.044-1.565 3.06.022.017 1.414-1.121 3.094-2.529 3.046-2.553 3.053-2.56 2.583-2.741-1.793-.691-2.158-.82-2.323-.82-.102 0-.907 1.363-1.789 3.03m-46.718-2.621c.143.371 6.642 9.257 6.771 9.257.12 0 3.055-8.338 2.967-8.427-.026-.026-1.997-.241-4.38-.478a391.299 391.299 0 01-4.888-.505c-.421-.055-.536-.018-.47.153m57.492.408c-2.493.245-4.586.497-4.649.56-.114.114 2.528 8.076 2.768 8.344.107.119 6.998-9.027 6.998-9.289 0-.123.294-.145-5.117.385m-34.252 2.81c-1.518 1.718-2.736 3.148-2.707 3.18.074.081 9.577-3.69 9.574-3.8-.001-.05-.577-.428-1.281-.841l-2.053-1.205-.773-.456-2.76 3.122m11.161-1.914c-1.077.652-1.958 1.237-1.958 1.3 0 .104 9.537 4.005 9.611 3.931.051-.051-5.519-6.424-5.611-6.42-.046.002-.965.537-2.042 1.189m-25.252 4.082c-.755 2.271-1.373 4.171-1.373 4.223 0 .052 2.217-.437 4.927-1.087 2.71-.65 4.925-1.24 4.921-1.311-.004-.071-.515-.563-1.136-1.092-.621-.529-2.153-1.839-3.405-2.912-1.253-1.072-2.341-1.95-2.42-1.95-.078 0-.76 1.858-1.514 4.129m39.057-1.087l-3.632 3.042 4.957 1.214c2.726.667 4.993 1.177 5.038 1.132.077-.077-2.583-8.43-2.684-8.43-.026 0-1.682 1.369-3.679 3.042m-22.82 1.119c-3.194 1.273-5.834 2.341-5.866 2.373-.033.033.264.582.659 1.221l2.842 4.579 2.122 3.416.489 4.409c.269 2.425.505 4.425.526 4.445.02.021 1.074-.407 2.343-.95 2.82-1.207 2.615-1.208 5.384.018 1.248.553 2.29.984 2.316.959.025-.026.279-2.06.563-4.52.458-3.964.56-4.532.906-5 .668-.905 5.322-8.451 5.254-8.518-.071-.071-11.606-4.763-11.683-4.753-.027.004-2.661 1.048-5.855 2.321m-12.122 3.833c-2.527.619-4.691 1.157-4.808 1.196-.198.066 7.09 3.644 7.42 3.643.083 0 .592-1.256 1.132-2.792.54-1.535 1.017-2.884 1.059-2.999.1-.267.5-.347-4.803.952m31.179-.844c0 .544 2.002 5.76 2.194 5.715.411-.096 7.447-3.446 7.379-3.514-.291-.291-9.573-2.425-9.573-2.201m-26.719 3.565c-.521 1.397-.948 2.593-.948 2.659 0 .121 2.831 2.072 3.229 2.225.193.074-1.055-7.146-1.273-7.365-.033-.032-.486 1.084-1.008 2.481m25.245 1.017c-.381 1.963-.693 3.682-.693 3.82 0 .294 3.318-1.855 3.327-2.156.006-.182-1.77-5.061-1.884-5.174-.031-.032-.369 1.548-.75 3.51M188.573 116c.105.448.832 4.275 1.125 5.917.098.55.196 1.021.219 1.048.067.079 2.489-.49 2.626-.618.07-.064-.746-1.537-1.814-3.274-2.112-3.435-2.304-3.708-2.156-3.073m20.614 3.025c-1.135 1.827-2.035 3.342-2 3.367.132.096 2.671.639 2.727.583.09-.09 1.452-7.165 1.39-7.221-.03-.027-.982 1.445-2.117 3.271m-23.866 2.429c-.007.163-.107 2.133-.222 4.379-.116 2.246-.195 4.105-.176 4.132.019.026.95-1.353 2.069-3.064 1.674-2.559 1.996-3.148 1.814-3.32-.839-.788-3.474-2.397-3.485-2.127m27.285 1.07c-.982.653-1.764 1.247-1.737 1.32.099.273 3.885 6.147 3.964 6.152.108.006-.245-8.464-.357-8.576-.047-.046-.888.45-1.87 1.104m-20.969.955c-.611.151-1.164.326-1.227.389-.063.063.66 1.476 1.607 3.138.948 1.663 1.747 2.951 1.777 2.863.029-.089-.1-1.52-.287-3.18-.187-1.66-.34-3.132-.34-3.27 0-.299-.085-.296-1.53.06m15.03-.077c0 .142-.155 1.615-.344 3.273-.189 1.658-.318 3.091-.287 3.184.053.157 3.319-5.363 3.432-5.799.056-.216-.128-.29-1.385-.56a21.51 21.51 0 01-1.125-.267c-.19-.058-.291.001-.291.169m-23.073 4.223a758.214 758.214 0 01-1.351 5.537c-.398 1.602-.698 2.939-.666 2.97.031.032.584-.966 1.228-2.218l1.17-2.276.181-3.261c.1-1.794.156-3.288.124-3.32-.032-.031-.341 1.124-.686 2.568m3.414.737c-1.88 2.9-2.042 3.212-1.845 3.534.431.704 3.225 4.439 3.279 4.384.075-.075.745-10.981.679-11.048-.028-.028-.979 1.38-2.113 3.13m2.926-2.345c-.054.495-.174 2.362-.268 4.15a573.606 573.606 0 01-.271 4.833l-.101 1.583 1.311-1.268c.722-.698 1.778-1.711 2.349-2.25l1.037-.982-1.981-3.482-1.98-3.483-.096.899m20.797.483c.121 1.624.414 7.242.46 8.796.017.576.089 1.026.161 1 .309-.109 3.483-4.552 3.402-4.762-.084-.219-3.882-6.192-4.048-6.367-.044-.046-.032.554.025 1.333m4.848.423c.264 5.125.145 4.532 1.42 7.052.632 1.251 1.154 2.188 1.159 2.083.012-.276-2.485-10.774-2.588-10.876-.047-.048-.043.736.009 1.741m-7.805 1.781l-1.941 3.378 2.244 2.243c1.234 1.234 2.278 2.209 2.32 2.167.098-.098-.491-10.974-.6-11.084-.046-.045-.956 1.438-2.023 3.296m-9.274 2.319c-.687.278-1.281.537-1.319.575-.039.038 1.199.065 2.75.061l2.819-.007-1.407-.576c-1.66-.68-1.311-.673-2.843-.053m-3.737 2.185c-.09.702-.598 7.016-.597 7.418 0 .122 1.048-.315 2.506-1.046 3.303-1.654 3.023-1.651 6.216-.053 1.456.73 2.667 1.303 2.692 1.275.08-.096-.563-7.973-.665-8.139-.063-.1-2.008-.163-5.081-.163h-4.98l-.091.708m-9.998 1.834a885.875 885.875 0 00-.348 8.458c-.136 3.621-.288 7.104-.336 7.74-.049.637-.047 1.115.005 1.063.204-.204 4.232-14.527 4.135-14.701-.166-.295-3.252-4.435-3.306-4.435-.027 0-.094.843-.15 1.875m28.431.368c-.933 1.232-1.696 2.329-1.696 2.439 0 .284 3.811 13.833 4.004 14.234.109.227.133-.174.076-1.25-.047-.871-.203-5.183-.348-9.583-.144-4.4-.28-8.018-.301-8.04-.021-.022-.802.968-1.735 2.2m-21.586.064l-2.136 2.14 1.888 1.511c1.038.831 1.906 1.494 1.928 1.473.022-.021.152-1.383.288-3.027.137-1.643.281-3.269.32-3.613.098-.874.091-.869-2.288 1.516m14.327-1.123c.053.586.182 2.255.288 3.71l.192 2.644 1.833-1.435c1.008-.789 1.833-1.529 1.833-1.644 0-.115-.954-1.139-2.121-2.275l-2.121-2.066.096 1.066m-22.568.357c-.269.482-.985 1.819-1.59 2.973l-1.102 2.098 1.148 5.844c.631 3.215 1.177 6.021 1.213 6.236.131.786.29-1.942.545-9.359.144-4.171.281-7.827.306-8.125.057-.698.056-.698-.52.333m32.531.334c.053.664.18 4.245.284 7.958.103 3.712.235 7.344.294 8.071l.105 1.321 1.247-6.291c1.237-6.245 1.244-6.295.947-6.812-.165-.287-.864-1.631-1.555-2.988-1.453-2.856-1.447-2.851-1.322-1.259m-26.545 5.563c.012 1.088.068 2.524.125 3.191l.103 1.213 1.72-1.727 1.72-1.727-1.637-1.304c-.9-.717-1.73-1.376-1.844-1.465-.165-.126-.204.259-.187 1.819m19.276-.559c-.983.754-1.789 1.41-1.792 1.459-.012.19 3.198 3.492 3.322 3.415.072-.044.141-.851.154-1.792.012-.941.069-2.33.126-3.086.058-.757.076-1.373.04-1.371-.035.002-.868.621-1.85 1.375m-11.107.181l-1.893.856 2.101.047c1.156.026 3.049.026 4.207 0l2.106-.047-1.981-.878c-2.363-1.047-2.172-1.048-4.54.022m-9.661 2.33c-.304 1.086-.529 1.992-.5 2.013.03.021.335.208.679.415l.625.376-.017-1.472c-.009-.81-.065-1.885-.125-2.389l-.108-.917-.554 1.974m23.252.391c-.057 1.257-.078 2.311-.047 2.342.126.127 1.265-.673 1.265-.888 0-.265-.94-3.564-1.045-3.67-.039-.038-.116.959-.173 2.216m-16.573-.747c.079.208 2.116 3.333 4.347 6.671.473.708.905 1.29.959 1.291.122.004 5.319-7.777 5.319-7.963 0-.074-2.411-.156-5.357-.182-4.496-.039-5.342-.01-5.268.183m-2.929 1.935l-1.799 1.805 4.345 2.055c2.39 1.131 4.372 2.025 4.405 1.988.079-.09-4.835-7.547-5.013-7.606-.076-.025-.948.766-1.938 1.758m11.944 2.04c-1.389 2.103-2.473 3.824-2.409 3.824.114 0 8.216-3.73 8.55-3.936.151-.094-3.311-3.744-3.528-3.722-.048.005-1.223 1.73-2.613 3.834m-16.87.449l-.931 3.187c-.332 1.134-.574 2.092-.537 2.129.036.036.779-1.248 1.651-2.854l1.586-2.921-.54-.333c-.793-.49-.871-.44-1.229.792m25.188-.772c-.673.43-.79.026.952 3.277 1.888 3.525 1.88 3.514 1.497 2.12-1.688-6.135-1.6-5.941-2.449-5.397m-23.256 1.839c-.422.736-4.079 7.416-4.433 8.096-.169.323 13.774 10.045 14.406 10.045.098 0-9.208-18.474-9.432-18.725-.069-.077-.313.185-.541.584m1.548-.573c0 .109 3.839 7.747 7.469 14.86l2.158 4.228.747-1.395a442.21 442.21 0 002.582-4.979l4.205-8.211 2.37-4.628-1.224.559c-.673.308-2.896 1.331-4.94 2.275l-3.716 1.715-3.034-1.428c-5.817-2.736-6.617-3.098-6.617-2.996m15.623 9.244c-2.636 5.146-4.771 9.378-4.743 9.406.047.047 1.123-.648 8.453-5.456a996.705 996.705 0 014.548-2.968c.898-.58 1.61-1.11 1.584-1.179-.172-.44-4.898-9.156-4.965-9.157-.046-.001-2.241 4.209-4.877 9.354m-20.623 1.704c0 .042 1.556 2.277 3.458 4.967 1.902 2.69 3.665 5.189 3.918 5.554.253.364.599.841.768 1.06l.308.398 2.605-1.398c1.433-.769 2.606-1.445 2.607-1.503.001-.057-2.416-1.702-5.373-3.655a2686.802 2686.802 0 01-6.833-4.525c-.802-.535-1.458-.939-1.458-.898m22.307 4.569c-3.727 2.446-6.727 4.495-6.667 4.553.162.156 5.057 2.812 5.175 2.807.089-.003 1.823-2.406 7.057-9.778.801-1.128 1.401-2.046 1.334-2.04-.068.006-3.172 2.012-6.899 4.458m-10.793 6.7l-2.402 1.298 1.902 1.231a185.86 185.86 0 002.527 1.613l.625.383v-2.931c0-1.611-.056-2.922-.125-2.911-.068.01-1.206.603-2.527 1.317m3.51 1.6c-.035 1.74.004 2.912.094 2.875.353-.141 4.882-3.064 4.882-3.15 0-.086-4.694-2.661-4.85-2.661-.037 0-.093 1.321-.126 2.936" fill="#2c2c2c"/><path d="M176.549 51.125c-.273.619-.9 2.077-1.395 3.242l-.899 2.116-1.336.74c-.734.408-3.136 1.761-5.336 3.008-2.369 1.343-4.015 2.182-4.037 2.06-.021-.114-.232-1.967-.47-4.117-.238-2.15-.469-3.969-.514-4.042-.188-.304-.594-.095-.798.41-.12.298-1.241 3.018-2.491 6.046-1.25 3.028-2.273 5.59-2.273 5.693 0 .104 1.548 2.651 3.439 5.662 1.892 3.011 4.897 7.799 6.679 10.64l3.24 5.167 9.255 5.859c5.091 3.223 9.32 5.924 9.398 6.002.17.17 1.044 3.389.947 3.487-.037.037-1.48-.795-3.205-1.849-1.726-1.053-3.225-1.916-3.332-1.916-.23 0-16.057-2.814-16.421-2.919-.686-.2-.698.033-.219 4.403l.461 4.205 4.087 5.608 4.088 5.609 4.083 1.948c2.246 1.072 4.281 2.06 4.523 2.196l.44.247-.379 1.56-2.308 9.52-1.931 7.96 1.577 8.124c.867 4.467 1.577 8.242 1.577 8.389.001.146 1.212 1.983 2.692 4.083l5.086 7.213 2.394 3.396 3.201 2.062c1.761 1.135 3.316 2.057 3.457 2.05.14-.007 1.679-.929 3.42-2.05l3.166-2.037 5.121-7.158c2.817-3.937 5.125-7.309 5.129-7.492.005-.183.738-3.984 1.63-8.445l1.622-8.112-2.265-9.471c-1.246-5.21-2.221-9.522-2.167-9.582.054-.061 2.048-1.024 4.432-2.141 5.034-2.358 4.302-1.778 7.157-5.666 1.245-1.695 3.05-4.15 4.012-5.453 1.379-1.87 1.748-2.485 1.749-2.917 0-.3.186-2.121.412-4.045.504-4.299.684-4.009-2.164-3.496-1.191.214-5.014.882-8.495 1.483l-6.329 1.094-3.06 1.834c-1.682 1.008-3.118 1.834-3.191 1.834-.123 0 .678-3.126.888-3.467.053-.086.53-.419 1.059-.739.529-.32 4.736-2.946 9.349-5.835l8.387-5.253 6.738-10.617c3.706-5.839 6.739-10.666 6.74-10.728.006-.369-4.946-12.248-5.137-12.321-.388-.149-.451.143-.947 4.376-.263 2.246-.521 4.077-.573 4.069-.053-.008-2.453-1.377-5.335-3.042l-5.24-3.027-1.305-3.08c-1.988-4.691-1.975-4.697-2.538 1.251-.234 2.473-.464 4.724-.511 5.003-.08.478-.005.561 1.374 1.505.803.549 3.466 2.376 5.918 4.061l4.458 3.063-.292.452-4.208 6.551c-2.154 3.355-3.962 6.083-4.017 6.063-.055-.019-1.534-1.685-3.286-3.702-2.876-3.311-3.263-3.693-3.983-3.942-.438-.152-1.77-.658-2.959-1.125-3.338-1.312-3.321-1.342-1.21 2.07 2.487 4.02 5.825 9.735 5.85 10.014.014.171-1.475 1.134-4.395 2.842-11.197 6.551-12.353 7.293-13.605 8.737-1.38 1.592-1.113 1.592-2.458-.001-1.309-1.552-2.082-2.045-16.395-10.469-.848-.499-1.575-.962-1.617-1.03-.08-.13 3.614-6.365 6.106-10.306 2.136-3.376 2.183-3.343-2.278-1.608l-2.888 1.123-3.203 3.652c-1.782 2.031-3.267 3.588-3.346 3.508-.304-.303-8.294-12.948-8.238-13.037.032-.052 2.645-1.82 5.806-3.928 3.161-2.108 5.785-3.914 5.832-4.013.083-.175-.65-9.125-.808-9.862-.163-.758-.668-.44-1.192.75m1.035 6.375l.12 1.583-.644-.581c-.354-.32-.951-.869-1.327-1.219l-.684-.637 1.017-2.365 1.017-2.364.191 2c.105 1.1.245 2.712.31 3.583m47.56-.61c-.033.022-.607.516-1.275 1.097-.667.582-1.256 1.015-1.307.964-.097-.097.407-6.177.548-6.618.044-.137.534.823 1.088 2.134s.98 2.401.946 2.423m-49.341 1.633c.763.653 1.325 1.246 1.25 1.318-.075.072-2.949.853-6.386 1.737-3.438.884-6.361 1.645-6.495 1.69-.135.046-.187.025-.117-.045.135-.135 10.134-5.849 10.278-5.874.046-.008.708.52 1.47 1.174m55.406 2.007c2.734 1.565 4.948 2.869 4.92 2.897-.028.028-1.587-.356-3.465-.854-1.878-.497-4.736-1.251-6.353-1.675-2.777-.728-3.488-.967-3.306-1.107.043-.033.668-.567 1.388-1.187.88-.757 1.397-1.092 1.578-1.023.147.057 2.505 1.384 5.238 2.949m-68.484 1.64c.082.735.068.763-.585 1.138-.88.507-.861.587-.475-2.074.563-3.884.522-3.92 1.06.936m75.728-1.128c.429 3.082.459 2.923-.455 2.457-.615-.314-.69-.413-.612-.803.049-.245.185-1.362.303-2.481.265-2.525.302-2.485.764.827m-77.612-.011c-.513 3.533-.395 3.241-1.539 3.818-.551.278-1.022.482-1.045.454-.023-.029.602-1.611 1.391-3.515.788-1.904 1.457-3.39 1.486-3.303.029.088-.102 1.234-.293 2.546m79.74 1.1c1.45 3.594 1.447 3.558.263 2.958-1.054-.535-1.078-.591-1.502-3.672-.522-3.794-.596-3.836 1.239.714m-65.006-.82c-.309.282-11.452 7.703-11.618 7.738-.172.035-2.613-3.662-2.618-3.966-.001-.091 3.166-1.004 7.038-2.028 7.474-1.976 7.444-1.968 7.198-1.744m56.092 1.877c3.804 1.021 6.981 1.916 7.061 1.988.13.116-2.084 3.882-2.395 4.074-.07.043-1.377-.764-2.905-1.794-5.205-3.509-8.973-6.123-8.825-6.123.081-.001 3.259.834 7.064 1.855m-70.249 3.662c1.162 1.878 1.21 1.852-1.131.604-2.266-1.209-2.193-1.098-1.079-1.659 1.214-.612 1.164-.635 2.21 1.055m79.45-.898c.523.256.953.502.956.548.005.096-4.049 2.305-4.123 2.247-.075-.06 1.991-3.246 2.11-3.253.058-.003.534.203 1.057.458m-78.229 3.705l.722.426 2.482 6.324c1.365 3.478 2.46 6.345 2.434 6.371-.037.037-8.986-14.14-9.528-15.095-.121-.211 2.085.907 3.89 1.974m74.43 5.107c-5.052 7.963-5.477 8.613-5.327 8.153.307-.944 4.986-12.524 5.116-12.664.182-.195 4.539-2.579 4.6-2.517.024.024-1.951 3.186-4.389 7.028m-67.949-1.431c3.259 5.114 3.085 4.834 3.001 4.834-.111 0-7.587-8.074-7.617-8.227-.039-.198 1.554-1.265 1.69-1.132.061.06 1.378 2.096 2.926 4.525m66.489-3.291c.073.117-5.91 6.595-7.273 7.875-.478.449.506-1.142 4.77-7.718l.898-1.383.762.547c.419.3.798.606.843.679m-66.356 6.291a978.912 978.912 0 004.538 4.852l.735.769-1.555.907-1.554.908-.399 1.125c-.504 1.426-.203 1.967-3.329-5.983-2.712-6.897-2.873-7.348-2.464-6.905l4.028 4.327m63.129 2.811c-1.539 3.86-2.84 7.019-2.891 7.021-.051.001-.255-.505-.455-1.123l-.362-1.125-1.514-.885c-.833-.487-1.491-.946-1.462-1.021.089-.231 9.353-10.015 9.42-9.948.035.034-1.196 3.221-2.736 7.081m-45.65-5.936c-.946 1.622-1.794 2.772-1.967 2.666-.536-.327-1.765-1.275-1.765-1.361.001-.091 3.429-1.475 3.718-1.501.074-.007.08.082.014.196m28.435.483c2.227.882 2.174.804 1.098 1.617-1.104.833-1.146.837-1.554.15-.178-.298-.6-.973-.939-1.5-.735-1.144-.793-1.133 1.395-.267m-30.75 3.114c0 .241-3.332 5.7-3.384 5.545-.042-.127.893-5.332 1.223-6.808.082-.367 2.161.848 2.161 1.263m33.418-1.43c.002.023.298 1.652.658 3.62.361 1.968.631 3.603.601 3.633-.093.093-3.452-5.638-3.396-5.794.103-.291 2.127-1.672 2.137-1.459m-37.305 4.667c-.426 2.268-.831 4.125-.9 4.125-.069 0-.956-.493-1.971-1.096l-1.845-1.095 1.059-1.196c.583-.658 1.799-2.042 2.702-3.074.903-1.033 1.661-1.858 1.685-1.834.024.025-.305 1.901-.73 4.17m41.125-.967c1.381 1.597 2.512 2.943 2.512 2.991 0 .152-3.708 2.282-3.805 2.185-.088-.088-1.509-7.603-1.522-8.053-.011-.361.203-.143 2.815 2.877m-44.011 5.01c1.317.778 2.426 1.415 2.465 1.415.038 0 1.549.876 3.356 1.947 1.807 1.07 4.251 2.512 5.432 3.203l2.148 1.258-.564.231c-.31.127-.902.361-1.314.52l-.75.29-7.584-4.233a5602.854 5602.854 0 00-7.963-4.44c-.365-.199-.331-.236.833-.908 1.515-.874 1.131-.943 3.941.717m48.563-.696c.618.351 1.155.689 1.194.752.071.115-.657.526-10.423 5.888l-5.439 2.985-1.144-.448c-.63-.247-1.199-.496-1.265-.552-.108-.094 9.221-5.635 11.294-6.707.471-.244 1.674-.934 2.674-1.534s1.856-1.075 1.902-1.057c.046.019.589.321 1.207.673m-46.312 5.804c4.32 2.398 7.945 4.441 8.054 4.542.174.159.884 3.764.884 4.49 0 .275-.204.166-2.75-1.471-.458-.295-4.002-2.542-7.875-4.994s-7.041-4.549-7.041-4.66c0-.297.682-2.267.785-2.267.048 0 3.623 1.962 7.943 4.36m48.706-2.978l.375 1.113-.446.312c-.709.496-17.071 10.719-17.291 10.804-.207.079.5-4.411.73-4.641.063-.062 2.814-1.591 6.114-3.398 3.3-1.807 6.863-3.761 7.917-4.344 2.257-1.246 2.126-1.254 2.601.154m-34.139 7.813c2.516 1.513 2.401 1.242 1 2.349l-.583.461-2.705-1.604c-1.487-.882-2.641-1.664-2.564-1.739.27-.259 2.142-.965 2.371-.893.128.039 1.244.681 2.481 1.426m15.684-.668l.562.231-2.765 1.621c-3.216 1.886-2.816 1.794-3.843.889l-.817-.72 2.382-1.429 2.382-1.429.768.304c.423.167 1.021.407 1.331.533m-18.396 2.557c1.192.705 2.186 1.301 2.21 1.323.047.045-3.565 1.386-3.941 1.463-.17.035-.309-.41-.532-1.703-.167-.963-.343-1.958-.391-2.212-.105-.545-.359-.653 2.654 1.129m18.854.614c-.198 1.163-.403 2.157-.455 2.209-.092.092-3.782-1.189-4.023-1.398-.068-.059.982-.753 2.333-1.542 1.352-.79 2.468-1.424 2.481-1.409.013.014-.138.977-.336 2.14m-12.454.302c.768.91.766.913-.517.659-1.919-.379-1.806-.279-1.05-.921.835-.708.735-.725 1.567.262m5.201-.319c.844.668.821.753-.235.877-.486.057-1.141.156-1.456.219l-.573.114.722-.862c.852-1.017.731-.99 1.542-.348m-30.802 5.058c2.72 2.011 4.924 3.677 4.898 3.703-.05.05-9.337-.783-9.402-.843-.053-.05-.712-5.856-.712-6.279 0-.465-.353-.697 5.216 3.419m3.792-2.658c3.342.594 6.23 1.117 6.418 1.161.332.079.194 3.194-.156 3.545-.053.053-2.554-1.05-5.558-2.451-5.458-2.546-7.042-3.313-6.871-3.328.051-.004 2.826.478 6.167 1.073m21.398-.554c1.74.252 1.801-.078-.531 2.893l-1.958 2.497-.053-1.5c-.03-.825-.004-2.127.058-2.893l.111-1.392.473.094c.26.052 1.115.188 1.9.301m7.008 1.348c.061.94.087 2.261.057 2.937l-.054 1.229-1.875-2.425c-1.032-1.333-1.917-2.531-1.967-2.66-.08-.21 1.956-.664 3.451-.769.233-.017.293.244.388 1.688m23.92-1.089c-.688.325-2.638 1.226-4.334 2.003-1.696.777-3.87 1.775-4.833 2.218-2.426 1.117-2.203 1.195-2.434-.84-.109-.963-.185-1.765-.168-1.783.06-.067 12.359-2.187 12.685-2.188.184 0-.229.266-.916.59m3.947.256l-.383 3.333-.284 2.459-.515.008c-.283.005-2.409.176-4.724.38-2.314.204-4.205.331-4.202.283.008-.124 9.878-7.313 10.059-7.327.081-.006.103.383.049.864m-38.876-.25a255.11 255.11 0 00-1.545 2.434c-.81 1.287-1.284 1.897-1.358 1.75-.168-.33-.882-3.153-.812-3.207.098-.073 3.714-1.397 3.871-1.417.079-.01.009.188-.156.44m14.262.274c1.745.666 1.913.766 1.871 1.124-.079.675-.735 2.977-.848 2.972-.124-.005-3.112-4.829-2.991-4.828.028.001.914.33 1.968.732m-32.295 2.53c2.67 1.244 5.188 2.431 5.594 2.637l.739.376-1.299.473c-.714.261-1.379.473-1.477.473-.126-.001-7.725-5.459-8.581-6.164-.298-.245.798.236 5.024 2.205m18.67.363c-.101 3.121.083 2.829-1.541 2.458-1.595-.364-1.571-.189-.307-2.2l1.418-2.258c.216-.344.42-.625.453-.625.034 0 .023 1.181-.023 2.625m12.906.007c.693 1.127 1.232 2.072 1.198 2.1-.034.028-.671.201-1.415.384l-1.352.334-.105-1.35a41.715 41.715 0 01-.101-2.767c.005-1.675-.103-1.754 1.775 1.299m22.052-2.564c0 .069-7.67 5.723-8.285 6.107-.321.2-2.743-.483-2.961-.836-.038-.061 1.48-.819 3.373-1.684a631.13 631.13 0 005.616-2.599c2.505-1.183 2.257-1.075 2.257-.988m-29.869 6.339l-.047 1.908-1.958-1.199c-1.077-.66-1.938-1.261-1.913-1.336.025-.075.906-1.257 1.958-2.627l1.913-2.49.047 1.918a97.598 97.598 0 010 3.826m3.121-3.104c1.071 1.404 1.921 2.576 1.889 2.603-.392.337-3.98 2.381-4.027 2.294-.143-.266-.107-7.559.037-7.506.084.03 1.029 1.205 2.101 2.609m-14.795 1.386c-.847.059-2.165.115-2.928.125l-1.388.019.089-.458c.049-.252.14-.984.2-1.625.061-.642.139-1.216.174-1.275.034-.059 1.261.616 2.727 1.5l2.666 1.608-1.54.106m28.442-1.687c.063.826.154 1.607.203 1.735.092.24-2.744.212-4.895-.048l-.877-.106 2.543-1.528c3.127-1.879 2.889-1.875 3.026-.053m-27.406 6.092c-.711 1.977-1.322 3.623-1.358 3.659-.076.077-3.635-6.696-3.635-6.92 0-.167 1.196-.251 4.267-.301l2.017-.032-1.291 3.594m3.647-3.271c.673.175 1.25.345 1.283.377.033.033-1.079 1.346-2.471 2.918-1.392 1.571-2.551 2.838-2.574 2.815-.032-.032 1.483-4.316 2.2-6.225.1-.264.102-.264 1.562.115m17.612 2.848c.621 1.744 1.099 3.195 1.063 3.226-.104.089-5.026-5.575-4.928-5.673.091-.091 2.217-.682 2.55-.709.102-.009.694 1.412 1.315 3.156m5.04-3.005c1.298 0 1.358-.301-.708 3.603-.963 1.82-1.75 3.366-1.75 3.436 0 .597-.439-.385-1.487-3.33a2237.86 2237.86 0 00-1.317-3.694c-.073-.199.25-.218 2.067-.126a86.11 86.11 0 003.195.111m-30.632 3.309c.841 1.59 1.504 2.917 1.472 2.948-.031.032-1.39-1.071-3.021-2.451-1.63-1.38-2.938-2.534-2.907-2.565.179-.179 2.731-1.023 2.82-.933.059.06.795 1.41 1.636 3.001m33.757-2.656c2.007.769 2.173.349-1.279 3.242-1.68 1.408-3.072 2.546-3.094 2.529-.111-.085 3.196-6.09 3.354-6.09.102 0 .561.143 1.019.319m-44.168.442c2.383.237 4.354.452 4.38.478.088.089-2.847 8.427-2.967 8.427-.129 0-6.628-8.886-6.771-9.257-.066-.171.049-.208.47-.153.306.041 2.505.268 4.888.505m57.251-.329c0 .262-6.891 9.408-6.998 9.289-.24-.268-2.882-8.23-2.768-8.344.063-.063 2.156-.315 4.649-.56 5.411-.53 5.117-.508 5.117-.385m-33.783 1.734c.704.413 1.28.791 1.281.841.003.11-9.5 3.881-9.574 3.8-.029-.032 1.189-1.462 2.707-3.18l2.76-3.122.773.456 2.053 1.205m10.48 1.55c1.529 1.758 2.766 3.21 2.748 3.228-.074.074-9.611-3.827-9.611-3.931 0-.107 3.814-2.48 4-2.489.046-.002 1.334 1.434 2.863 3.192m-26.223-.1c1.252 1.073 2.784 2.383 3.405 2.912.621.529 1.132 1.021 1.136 1.092.004.071-2.211.661-4.921 1.311-2.71.65-4.927 1.139-4.927 1.087 0-.332 2.773-8.352 2.887-8.352.079 0 1.167.878 2.42 1.95m40.209 2.224c.747 2.296 1.322 4.211 1.277 4.256-.045.045-2.312-.465-5.038-1.132l-4.957-1.214 3.632-3.042c1.997-1.673 3.653-3.042 3.679-3.042.026 0 .659 1.879 1.407 4.174m-16.218.007c3.182 1.292 5.814 2.377 5.85 2.412.068.067-4.586 7.613-5.254 8.518-.346.468-.448 1.036-.906 5-.284 2.46-.538 4.494-.563 4.52-.026.025-1.068-.406-2.316-.959-2.769-1.226-2.564-1.225-5.384-.018-1.269.543-2.323.971-2.343.95-.021-.02-.257-2.02-.526-4.445l-.489-4.409-2.122-3.416-2.842-4.579c-.395-.639-.692-1.188-.659-1.221.053-.052 11.602-4.678 11.721-4.694.026-.003 2.651 1.05 5.833 2.341m-19.007 2.861c-.042.115-.519 1.464-1.059 2.999-.54 1.536-1.049 2.792-1.132 2.792-.33.001-7.618-3.577-7.42-3.643.268-.089 9.352-2.315 9.546-2.339.079-.009.108.076.065.191m31.337 1.106c2.5.625 4.575 1.166 4.612 1.203.068.068-6.968 3.418-7.379 3.514-.192.045-2.194-5.171-2.194-5.715 0-.235.151-.204 4.961.998m-29.895 3.84c.526 2.71.659 3.673.496 3.611-.398-.153-3.229-2.104-3.229-2.225 0-.218 1.896-5.2 1.956-5.14.032.032.382 1.722.777 3.754m25.184-1.244c.504 1.356.914 2.549.91 2.652-.009.301-3.327 2.45-3.327 2.156 0-.392 1.379-7.395 1.443-7.33.032.031.47 1.166.974 2.522m-22.688 1.496c1.068 1.737 1.884 3.21 1.814 3.274-.137.128-2.559.697-2.626.618-.023-.027-.121-.498-.219-1.048-.293-1.642-1.02-5.469-1.125-5.917-.148-.635.044-.362 2.156 3.073m19.937.286c-.381 1.957-.72 3.583-.752 3.616-.056.056-2.595-.487-2.727-.583-.035-.025.865-1.54 2-3.367 1.135-1.826 2.087-3.298 2.117-3.271.03.027-.258 1.649-.638 3.605m-21.86 4.222c.182.172-.14.761-1.814 3.32-1.119 1.711-2.05 3.09-2.069 3.064-.019-.027.06-1.886.176-4.132.115-2.246.215-4.216.222-4.379.011-.27 2.646 1.339 3.485 2.127m25.933 2.172c.098 2.336.14 4.245.094 4.243-.079-.005-3.865-5.879-3.964-6.152-.059-.161 3.487-2.543 3.607-2.424.046.047.165 1.996.263 4.333m-21.572-2.334c0 .138.153 1.61.34 3.27.187 1.66.316 3.091.287 3.18-.03.088-.829-1.2-1.777-2.863-.947-1.662-1.67-3.075-1.607-3.138.108-.108 2.097-.641 2.548-.682.115-.011.209.094.209.233m14.916.081c1.257.27 1.441.344 1.385.56-.113.436-3.379 5.956-3.432 5.799-.031-.093.098-1.526.287-3.184.189-1.658.344-3.131.344-3.273 0-.168.101-.227.291-.169.161.048.667.169 1.125.267m-23.927 4.877l-.181 3.261-1.17 2.276c-.644 1.252-1.197 2.25-1.228 2.218-.032-.031.268-1.368.666-2.97a758.214 758.214 0 001.351-5.537c.345-1.444.654-2.599.686-2.568.032.032-.024 1.526-.124 3.32m4.68 2.377c-.186 3.009-.363 5.495-.394 5.526-.054.055-2.848-3.68-3.279-4.384-.194-.317 3.718-6.904 3.958-6.664.029.029-.1 2.514-.285 5.522m4.118 2.311c-.571.539-1.627 1.552-2.349 2.25l-1.311 1.268.101-1.583c.055-.871.178-3.046.271-4.833.094-1.788.214-3.655.268-4.15l.096-.899 1.98 3.483 1.981 3.482-1.037.982m19.771-4.788c1.068 1.664 1.98 3.13 2.029 3.257.081.21-3.093 4.653-3.402 4.762-.072.026-.144-.424-.161-1-.046-1.554-.339-7.172-.46-8.796-.057-.779-.069-1.379-.025-1.333.043.045.952 1.445 2.019 3.11m4.186 2.289c.691 2.915 1.252 5.386 1.247 5.492-.046 1.022-2.319-4.507-2.397-5.833-.211-3.56-.27-5.123-.191-5.043.047.047.651 2.47 1.341 5.384m-6.735.387c.163 3.005.263 5.497.221 5.539-.042.042-1.086-.933-2.32-2.167l-2.244-2.243 1.941-3.378c1.067-1.858 1.977-3.341 2.023-3.296.045.045.216 2.541.379 5.545m-8.833.123l1.407.576-2.819.007c-1.551.004-2.789-.023-2.75-.061.078-.078 2.518-1.076 2.662-1.089.051-.005.726.25 1.5.567m3.572 1.587c.102.166.745 8.043.665 8.139-.025.028-1.236-.545-2.692-1.275-3.193-1.598-2.913-1.601-6.216.053-1.458.731-2.506 1.168-2.506 1.046-.001-.402.507-6.716.597-7.418l.091-.708h4.98c3.073 0 5.018.063 5.081.163m-18.375 2.629c.867 1.168 1.623 2.208 1.681 2.31.097.174-3.931 14.497-4.135 14.701-.052.052-.054-.426-.005-1.063.048-.636.2-4.119.336-7.74.27-7.171.422-10.333.498-10.333.027 0 .758.956 1.625 2.125m28.692 5.958c.145 4.4.301 8.712.348 9.583.057 1.076.033 1.477-.076 1.25-.193-.401-4.004-13.95-4.004-14.234 0-.191 3.351-4.721 3.431-4.639.021.022.157 3.64.301 8.04m-21.334-7.292c-.039.344-.183 1.97-.32 3.613-.136 1.644-.266 3.006-.288 3.027-.022.021-.89-.642-1.928-1.473l-1.888-1.511 2.136-2.14c2.379-2.385 2.386-2.39 2.288-1.516m16.185 3.668c0 .115-.825.855-1.833 1.644l-1.833 1.435-.192-2.644a310.338 310.338 0 00-.288-3.71l-.096-1.066 2.121 2.066c1.167 1.136 2.121 2.16 2.121 2.275m-26.194-3.251c-.025.298-.162 3.954-.306 8.125-.255 7.417-.414 10.145-.545 9.359-.036-.215-.582-3.021-1.213-6.236l-1.148-5.844 1.102-2.098c2.092-3.985 2.176-4.117 2.11-3.306m33.333 1.926c.691 1.357 1.39 2.701 1.555 2.988.297.517.29.567-.947 6.812l-1.247 6.291-.105-1.321c-.059-.727-.191-4.359-.294-8.071-.104-3.713-.231-7.294-.284-7.958-.125-1.592-.131-1.597 1.322 1.259m-25.836 3.95l1.637 1.304-1.72 1.727-1.72 1.727-.103-1.213c-.201-2.367-.167-5.186.062-5.01.114.089.944.748 1.844 1.465m19.055-.209a60.446 60.446 0 00-.126 3.086c-.013.941-.082 1.748-.154 1.792-.124.077-3.334-3.225-3.322-3.415.006-.089 3.523-2.826 3.642-2.834.036-.002.018.614-.04 1.371m-8.377.163l1.981.878-2.106.047c-1.158.026-3.051.026-4.207 0l-2.101-.047 1.893-.856c2.368-1.07 2.177-1.069 4.54-.022m-13.414 3.684l.017 1.472-.625-.376a36.881 36.881 0 01-.679-.415c-.029-.021.196-.927.5-2.013l.554-1.974.108.917c.06.504.116 1.579.125 2.389m23.195-1.403c.611 2.106.612 2.075-.116 2.504-.777.459-.734.602-.614-2.042.057-1.257.134-2.254.173-2.216.038.038.289.827.557 1.754m-6.678-.286c0 .186-5.197 7.967-5.319 7.963-.054-.001-.486-.583-.959-1.291-2.231-3.338-4.268-6.463-4.347-6.671-.074-.193.772-.222 5.268-.183 2.946.026 5.357.108 5.357.182m-9.011 3.97c1.357 2.061 2.44 3.777 2.408 3.814-.033.037-2.015-.857-4.405-1.988l-4.345-2.055 1.799-1.805c.99-.992 1.862-1.783 1.938-1.758.076.025 1.248 1.732 2.605 3.792m11.906-2.024c.994.997 1.73 1.86 1.636 1.918-.334.206-8.436 3.936-8.55 3.936-.129 0 4.883-7.643 5.022-7.658.047-.005.899.807 1.892 1.804m-20.146 1.687l.54.333-1.586 2.921c-.872 1.606-1.615 2.89-1.651 2.854-.037-.037.205-.995.537-2.129l.931-3.187c.358-1.232.436-1.282 1.229-.792m25.452 2.011c1.105 3.896 1.281 4.579 1.114 4.323-.246-.379-3.149-5.813-3.149-5.896 0-.139 1.086-.764 1.242-.715.086.027.443 1.057.793 2.288m-19.381 8.698c2.584 5.11 4.657 9.291 4.605 9.291-.632 0-14.575-9.722-14.406-10.045.354-.68 4.011-7.36 4.433-8.096.525-.918-.061-1.884 5.368 8.85m2.797-6.427l3.034 1.428 3.716-1.715a2248.29 2248.29 0 014.94-2.275l1.224-.559-2.37 4.628-4.205 8.211a442.21 442.21 0 01-2.582 4.979l-.747 1.395-2.158-4.228c-3.63-7.113-7.469-14.751-7.469-14.86 0-.102.8.26 6.617 2.996m16.383 1.411a476.798 476.798 0 012.465 4.64c.026.069-.686.599-1.584 1.179-.897.58-2.944 1.915-4.548 2.968-7.33 4.808-8.406 5.503-8.453 5.456-.069-.069 9.516-18.761 9.62-18.76.046 0 1.171 2.033 2.5 4.517m-19.709 11.964c2.957 1.953 5.374 3.598 5.373 3.655-.001.058-1.174.734-2.607 1.503l-2.605 1.398-.308-.398a33.193 33.193 0 01-.768-1.06c-.253-.365-2.016-2.864-3.918-5.554-1.902-2.69-3.458-4.925-3.458-4.967 0-.041.656.363 1.458.898.802.536 3.877 2.572 6.833 4.525m19.581-3.272c-5.234 7.372-6.968 9.775-7.057 9.778-.118.005-5.013-2.651-5.175-2.807-.1-.096 13.282-8.986 13.566-9.011.067-.006-.533.912-1.334 2.04m-13.706 10.712v2.931l-.625-.383a185.86 185.86 0 01-2.527-1.613l-1.902-1.231 2.402-1.298c1.321-.714 2.459-1.307 2.527-1.317.069-.011.125 1.3.125 2.911m3.442-1.646c1.316.705 2.392 1.325 2.392 1.377 0 .086-4.529 3.009-4.882 3.15-.09.037-.129-1.135-.094-2.875.033-1.615.089-2.936.126-2.936.037 0 1.143.578 2.458 1.284" fill="#b8b8b8"/></g></svg>