<svg width="424.288" height="615.596" xmlns="http://www.w3.org/2000/svg"><path d="M96.257 5.711c-1.344 3.048-4.431 10.227-6.868 15.963l-4.427 10.42-6.578 3.643c-3.615 2.01-15.442 8.666-26.274 14.811-11.665 6.613-19.77 10.744-19.878 10.144-.104-.562-1.142-9.686-2.314-20.272-1.172-10.587-2.31-19.548-2.531-19.903-.926-1.496-2.925-.467-3.93 2.02-.59 1.467-6.11 14.86-12.265 29.77C5.037 67.21 0 79.83 0 80.336c0 .513 7.622 13.05 16.933 27.88 9.316 14.821 24.113 38.402 32.887 52.39l15.953 25.442 45.571 28.85c25.068 15.87 45.891 29.169 46.275 29.553.837.837 5.14 16.687 4.663 17.17-.182.181-7.287-3.915-15.781-9.11-8.499-5.18-15.88-9.43-16.407-9.43-1.132 0-79.063-13.855-80.855-14.377-3.378-.985-3.437.167-1.078 21.685l2.27 20.705 20.124 27.613 20.129 27.618 20.104 9.592c11.059 5.278 21.079 10.143 22.27 10.813l2.167 1.216-1.866 7.681-11.364 46.876-9.508 39.194 7.765 40.002c4.269 21.995 7.765 40.583 7.765 41.307.005.719 5.967 9.764 13.255 20.104l25.043 35.516 11.787 16.722 15.762 10.153c8.67 5.588 16.328 10.128 17.022 10.094.69-.036 8.267-4.58 16.84-10.094l15.589-10.03 25.215-35.246c13.87-19.385 25.235-35.993 25.255-36.89.024-.9 3.634-19.616 8.026-41.582l7.986-39.943-11.152-46.634c-6.136-25.653-10.936-46.885-10.67-47.18.265-.301 10.084-5.043 21.822-10.543 24.787-11.61 21.183-8.754 35.24-27.899 6.13-8.346 15.018-20.434 19.755-26.85 6.79-9.207 8.607-12.236 8.612-14.363 0-1.477.916-10.443 2.029-19.917 2.481-21.173 3.368-19.745-10.655-17.214-5.865 1.054-24.689 4.343-41.83 7.302l-31.162 5.387-15.068 9.03c-8.282 4.964-15.352 9.031-15.712 9.031-.605 0 3.339-15.392 4.373-17.071.26-.424 2.61-2.068 5.214-3.644 2.605-1.576 23.32-14.5 46.034-28.726l41.296-25.865 33.178-52.277c18.248-28.756 33.182-52.519 33.187-52.824.03-1.822-24.354-60.308-25.294-60.667-1.91-.739-2.221.704-4.663 21.547-1.295 11.059-2.566 20.074-2.822 20.035-.26-.04-12.078-6.78-26.269-14.978l-25.8-14.905-6.427-15.166c-9.788-23.098-9.724-23.127-12.496 6.155-1.153 12.182-2.285 23.266-2.517 24.64-.393 2.353-.024 2.757 6.766 7.41 3.954 2.703 17.066 11.699 29.14 19.99l21.95 15.088-1.437 2.225-20.72 32.252c-10.606 16.524-19.509 29.957-19.78 29.858-.27-.098-7.553-8.296-16.18-18.228-14.16-16.303-16.066-18.184-19.611-19.41-2.157-.748-8.716-3.24-14.57-5.54-16.436-6.46-16.353-6.607-5.958 10.193 12.246 19.794 28.682 47.934 28.805 49.308.069.837-7.263 5.584-21.64 13.994-55.134 32.251-60.826 35.91-66.99 43.02-6.796 7.839-5.48 7.839-12.104-.005-6.445-7.642-10.251-10.07-80.727-51.553-4.175-2.452-7.755-4.732-7.962-5.072-.394-.64 17.795-31.336 30.065-50.74 10.518-16.624 10.75-16.461-11.216-7.918l-14.22 5.53-15.772 17.981c-8.774 9.996-16.086 17.667-16.475 17.273-1.497-1.492-40.839-63.754-40.563-64.193.157-.256 13.024-8.961 28.588-19.34 15.564-10.38 28.485-19.273 28.716-19.76.409-.862-3.2-44.93-3.978-48.56-.803-3.732-3.29-2.166-5.87 3.693m5.097 31.39l.59 7.795-3.17-2.861a741.03 741.03 0 01-6.535-6.007l-3.367-3.132 5.007-11.645 5.008-11.64.94 9.848c.517 5.416 1.207 13.353 1.527 17.642m234.18-3.004c-.162.109-2.988 2.541-6.278 5.402-3.284 2.866-6.184 4.998-6.435 4.747-.478-.478 2.004-30.415 2.698-32.587.217-.674 2.63 4.053 5.357 10.508 2.728 6.45 4.826 11.817 4.658 11.93m-242.95 8.041c3.757 3.215 6.524 6.135 6.155 6.49-.37.354-14.52 4.2-31.444 8.553-16.928 4.352-31.321 8.1-31.98 8.321-.665.227-.922.123-.577-.221.665-.665 49.899-28.805 50.608-28.923.226-.04 3.486 2.56 7.238 5.78m272.814 9.882c13.462 7.706 24.363 14.127 24.226 14.265-.138.138-7.815-1.753-17.062-4.205-9.247-2.447-23.32-6.16-31.281-8.248-13.674-3.584-17.175-4.76-16.279-5.45.212-.163 3.29-2.792 6.835-5.845 4.333-3.727 6.878-5.377 7.77-5.037.723.28 12.334 6.815 25.79 14.52M28.19 60.096c.404 3.619.335 3.757-2.88 5.603-4.333 2.496-4.24 2.89-2.339-10.212 2.772-19.125 2.57-19.302 5.22 4.609m372.877-5.554c2.112 15.175 2.26 14.392-2.24 12.098-3.029-1.547-3.398-2.034-3.014-3.954.241-1.207.91-6.707 1.492-12.217 1.305-12.432 1.487-12.235 3.762 4.073m-382.154-.055c-2.526 17.396-1.945 15.954-7.578 18.8-2.713 1.369-5.032 2.373-5.146 2.235-.113-.147 2.965-7.932 6.85-17.307 3.88-9.375 7.174-16.692 7.316-16.264.143.433-.502 6.076-1.442 12.536m392.632 5.417c7.14 17.696 7.125 17.519 1.295 14.565-5.19-2.635-5.308-2.91-7.396-18.081-2.57-18.681-2.935-18.888 6.1 3.516M91.463 55.866c-1.522 1.389-56.389 37.929-57.206 38.101-.847.173-12.867-18.031-12.891-19.528-.005-.448 15.589-4.944 34.654-9.986 36.801-9.73 36.654-9.69 35.443-8.587m276.191 9.242c18.73 5.023 34.374 9.434 34.768 9.789.64.571-10.262 19.114-11.793 20.06-.345.212-6.78-3.762-14.304-8.834-25.629-17.283-44.182-30.149-43.453-30.149.398-.005 16.047 4.107 34.782 9.134M21.753 83.14c5.722 9.247 5.959 9.119-5.568 2.974-11.158-5.958-10.798-5.407-5.313-8.174 5.978-3.009 5.731-3.122 10.882 5.2m391.204-4.422c2.575 1.26 4.692 2.472 4.707 2.698.025.473-19.937 11.35-20.301 11.064-.37-.295 9.803-15.983 10.39-16.017.285-.015 2.629 1 5.204 2.255M27.766 96.96l3.555 2.097 12.221 31.14c6.721 17.125 12.113 31.241 11.985 31.365-.182.187-44.246-69.624-46.915-74.322-.596-1.039 10.266 4.466 19.154 9.72m366.486 25.146c-24.876 39.21-26.968 42.41-26.23 40.145 1.512-4.648 24.551-61.667 25.191-62.356.896-.96 22.35-12.704 22.65-12.394.118.118-9.607 15.688-21.611 34.605m-334.574-7.046c16.047 25.181 15.19 23.802 14.776 23.802-.546 0-37.357-39.755-37.505-40.509-.192-.975 7.652-6.228 8.321-5.573.3.295 6.786 10.32 14.408 22.28m327.385-16.204c.36.576-29.1 32.473-35.811 38.775-2.354 2.211 2.491-5.623 23.487-38.002l4.421-6.81 3.752 2.693c2.063 1.478 3.93 2.984 4.151 3.344m-326.73 30.971a4820.068 4820.068 0 0022.344 23.896l3.62 3.786-7.657 4.466-7.652 4.471-1.965 5.54c-2.481 7.021-1 9.685-16.391-29.46-13.354-33.96-14.147-36.181-12.133-34l19.834 21.306m310.84 13.836c-7.577 19.006-13.983 34.566-14.234 34.576-.251 0-1.256-2.487-2.24-5.53l-1.783-5.54-7.455-4.357c-4.102-2.398-7.342-4.658-7.199-5.027.439-1.138 46.054-49.313 46.383-48.983.173.167-5.889 15.855-13.471 34.861m-224.777-29.223c-4.658 7.986-8.833 13.649-9.685 13.127-2.639-1.61-8.69-6.278-8.69-6.702.004-.448 16.884-7.262 18.307-7.39.364-.035.393.403.069.965m140.01 2.378c10.966 4.343 10.705 3.959 5.407 7.962-5.436 4.102-5.643 4.121-7.652.739-.876-1.468-2.954-4.791-4.623-7.386-3.62-5.633-3.905-5.58 6.869-1.315m-151.41 15.333c0 1.182-16.407 28.066-16.663 27.303-.207-.625 4.397-26.254 6.022-33.522.404-1.807 10.64 4.176 10.64 6.219m164.548-7.041c.01.113 1.467 8.134 3.24 17.824 1.777 9.69 3.107 17.741 2.959 17.889-.458.458-16.997-27.761-16.722-28.53.507-1.432 10.473-8.232 10.523-7.188M115.86 148.1c-2.098 11.167-4.092 20.31-4.432 20.31-.34 0-4.707-2.427-9.705-5.396l-9.085-5.392 5.215-5.889c2.87-3.24 8.858-10.054 13.304-15.136 4.446-5.086 8.179-9.148 8.297-9.03.118.123-1.502 9.355-3.594 20.533m202.495-4.762c6.8 7.864 12.369 14.491 12.369 14.723 0 .753-18.258 11.241-18.736 10.763-.433-.433-7.43-37.436-7.494-39.652-.054-1.777 1-.704 13.861 14.166m-216.706 24.669c6.485 3.83 11.945 6.967 12.138 6.967.187 0 7.627 4.314 16.524 9.587a7613.848 7613.848 0 0026.747 15.771l10.576 6.195-2.777 1.132c-1.526.63-4.441 1.783-6.47 2.56l-3.693 1.429-37.343-20.838a27587.91 27587.91 0 00-39.209-21.863c-1.797-.984-1.63-1.162 4.102-4.47 7.46-4.304 5.569-4.644 19.405 3.53m239.12-3.427c3.043 1.723 5.687 3.393 5.879 3.703.35.566-3.235 2.59-51.322 28.992l-26.781 14.698-5.633-2.206c-3.102-1.217-5.904-2.443-6.229-2.718-.532-.463 45.403-27.747 55.61-33.025 2.32-1.201 8.243-4.599 13.167-7.553 4.924-2.955 9.139-5.298 9.365-5.215.227.094 2.9 1.576 5.944 3.314M112.733 193.15c21.271 11.808 39.12 21.863 39.657 22.365.857.783 4.353 18.533 4.353 22.108 0 1.354-1.005.817-13.541-7.243-2.255-1.452-19.706-12.517-38.776-24.59-19.07-12.073-34.669-22.404-34.669-22.945 0-1.463 3.358-11.163 3.865-11.163.237 0 17.84 9.66 39.11 21.468m239.824-14.663l1.847 5.48-2.196 1.537c-3.491 2.442-84.056 52.779-85.14 53.197-1.019.39 2.463-21.719 3.595-22.851.31-.306 13.856-7.834 30.105-16.732 16.249-8.897 33.793-18.519 38.982-21.39 11.114-6.134 10.469-6.174 12.807.759m-168.097 38.47c12.389 7.45 11.823 6.116 4.924 11.567l-2.87 2.265-13.32-7.893c-7.321-4.343-13.004-8.194-12.624-8.568 1.329-1.27 10.547-4.747 11.674-4.392.63.192 6.125 3.348 12.216 7.022m77.227-3.29l2.767 1.133-13.615 7.986c-15.835 9.287-13.865 8.834-18.922 4.378l-4.023-3.545 11.729-7.042 11.729-7.031 3.781 1.497c2.083.822 5.027 2.004 6.554 2.624m-90.58 12.596c5.869 3.471 10.763 6.4 10.882 6.514.231.222-17.554 6.825-19.406 7.204-.837.172-1.521-2.02-2.62-8.386-.821-4.741-1.688-9.64-1.924-10.891-.517-2.684-1.768-3.216 13.068 5.559m92.835 3.023c-.975 5.726-1.984 10.62-2.24 10.877-.453.453-18.623-5.86-19.81-6.884-.334-.295 4.836-3.707 11.488-7.592 6.657-3.89 12.152-7.012 12.216-6.943.064.074-.68 4.815-1.654 10.537m-61.322 1.492c3.781 4.48 3.771 4.495-2.546 3.245-9.449-1.871-8.893-1.379-5.17-4.535 4.111-3.486 3.619-3.57 7.716 1.29m25.609-1.576c4.156 3.294 4.042 3.713-1.157 4.324-2.393.28-5.618.768-7.17 1.078l-2.82.561 3.554-4.244c4.195-5.008 3.6-4.875 7.593-1.714M76.562 254.107c13.393 9.897 24.245 18.106 24.117 18.234-.246.246-45.974-3.856-46.294-4.151-.261-.246-3.506-28.835-3.506-30.922 0-2.285-1.738-3.427 25.683 16.84m18.671-13.088c16.456 2.924 30.676 5.5 31.602 5.711 1.635.394.955 15.732-.768 17.46-.261.261-12.576-5.17-27.367-12.068-26.875-12.536-34.674-16.313-33.832-16.387.25-.02 13.914 2.354 30.365 5.284m105.362-2.728c8.568 1.24 8.868-.384-2.615 14.245l-9.64 12.295-.262-7.386c-.147-4.062-.02-10.473.286-14.245l.547-6.854 2.329.463c1.28.256 5.49.925 9.355 1.477m34.507 6.642c.3 4.629.428 11.128.28 14.462l-.266 6.051-9.232-11.94c-5.081-6.564-9.439-12.463-9.685-13.098-.394-1.034 9.63-3.27 16.992-3.791 1.147-.08 1.443 1.206 1.91 8.316m117.78-5.367c-3.387 1.605-12.989 6.042-21.34 9.868-8.35 3.826-19.055 8.74-23.797 10.92-11.945 5.5-10.847 5.885-11.985-4.135-.537-4.742-.91-8.69-.827-8.78.295-.33 60.854-10.768 62.46-10.773.906 0-1.128 1.31-4.51 2.905m19.434 1.26l-1.886 16.412-1.398 12.108-2.536.039c-1.393.025-11.862.867-23.26 1.871-11.394 1.005-20.706 1.625-20.69 1.394.038-.611 48.638-36.009 49.529-36.078.399-.03.507 1.886.241 4.254m-191.422-1.23a1256.137 1256.137 0 00-7.607 11.984c-3.988 6.337-6.322 9.341-6.687 8.617-.827-1.625-4.343-15.525-3.998-15.79.483-.36 18.287-6.88 19.06-6.978.39-.05.045.926-.768 2.167m70.225 1.349c8.592 3.279 9.42 3.771 9.213 5.534-.39 3.324-3.62 14.659-4.176 14.634-.61-.025-15.323-23.782-14.727-23.773.138 0 4.5 1.625 9.69 3.605M92.102 253.403c13.146 6.126 25.545 11.965 27.544 12.985l3.639 1.85-6.396 2.33c-3.516 1.28-6.79 2.329-7.273 2.329-.62-.005-38.037-26.885-42.252-30.351-1.467-1.206 3.93 1.162 24.738 10.857m91.929 1.788c-.497 15.362.409 13.93-7.588 12.103-7.853-1.793-7.735-.936-1.511-10.833l6.982-11.118c1.063-1.694 2.068-3.078 2.23-3.078.168 0 .113 5.81-.113 12.926m63.548.034c3.412 5.55 6.066 10.202 5.899 10.34-.168.138-3.304.985-6.968 1.89l-6.657 1.646-.517-6.648a205.4 205.4 0 01-.497-13.624c.025-8.248-.507-8.637 8.74 6.396M356.16 242.6c0 .34-37.767 28.18-40.795 30.07-1.58.985-13.506-2.378-14.58-4.116-.187-.3 7.288-4.038 16.609-8.292a3107.623 3107.623 0 0027.652-12.802c12.335-5.82 11.114-5.288 11.114-4.86m-147.072 31.213l-.232 9.395-9.64-5.91c-5.304-3.249-9.543-6.203-9.42-6.572.123-.37 4.46-6.19 9.64-12.936l9.42-12.26.232 9.444a480.563 480.563 0 010 18.839m15.367-15.284c5.274 6.913 9.459 12.684 9.301 12.817-1.93 1.66-19.597 11.719-19.828 11.295-.704-1.31-.527-37.224.182-36.958.414.147 5.067 5.933 10.345 12.846m-72.849 6.82c-4.17.29-10.66.566-14.417.615l-6.835.094.439-2.256c.241-1.24.689-4.845.984-8 .3-3.162.685-5.988.857-6.279.168-.295 6.21 3.033 13.428 7.386l13.127 7.918-7.583.522m140.046-8.307c.31 4.067.758 7.913 1 8.543.452 1.182-13.512 1.044-24.103-.236l-4.319-.522 12.522-7.524c15.397-9.257 14.225-9.232 14.9-.261m-134.945 29.996c-3.5 9.735-6.51 17.84-6.686 18.017-.375.38-17.899-32.97-17.899-34.073 0-.823 5.89-1.236 21.01-1.483l9.932-.157-6.357 17.696m17.958-16.106c3.313.862 6.155 1.699 6.317 1.857.163.162-5.313 6.627-12.167 14.368-6.854 7.73-12.56 13.974-12.674 13.86-.158-.157 7.302-21.251 10.833-30.651.492-1.3.502-1.3 7.69.566m86.72 14.024c3.058 8.587 5.412 15.731 5.235 15.884-.513.438-24.748-27.45-24.265-27.933.448-.448 10.916-3.358 12.555-3.496.503-.04 3.418 6.957 6.475 15.545m24.817-14.797c6.391 0 6.687-1.482-3.486 17.741-4.742 8.962-8.617 16.574-8.617 16.919 0 2.94-2.162-1.896-7.322-16.397a11019.006 11019.006 0 00-6.485-18.189c-.36-.985 1.231-1.073 10.178-.62a423.997 423.997 0 0015.732.541m-150.83 16.298c4.142 7.83 7.406 14.363 7.249 14.516-.153.158-6.844-5.273-14.875-12.068-8.026-6.795-14.467-12.478-14.314-12.63.881-.887 13.447-5.037 13.885-4.594.29.295 3.915 6.943 8.056 14.772m166.216-13.073c9.882 3.786 10.7 1.718-6.298 15.963-8.272 6.933-15.126 12.536-15.234 12.452-.547-.418 15.737-29.986 16.515-29.986.502 0 2.762.704 5.017 1.57M84.11 275.552c11.734 1.167 21.439 2.226 21.567 2.354.433.438-14.019 41.493-14.61 41.493-.635 0-32.635-43.754-33.34-45.58-.324-.842.242-1.024 2.315-.754 1.507.197 12.334 1.32 24.068 2.487m281.899-1.625c0 1.295-33.931 46.329-34.458 45.743-1.182-1.32-14.19-40.524-13.63-41.085.31-.31 10.617-1.551 22.892-2.757 26.643-2.61 25.196-2.502 25.196-1.896m-166.345 8.543c3.467 2.033 6.303 3.89 6.308 4.136.015.542-46.777 19.115-47.142 18.71-.142-.152 5.855-7.193 13.33-15.657l13.59-15.368 3.806 2.246 10.108 5.933m51.603 7.632c7.528 8.656 13.62 15.806 13.53 15.894-.364.365-47.323-18.843-47.323-19.356 0-.526 18.78-12.21 19.696-12.26.226-.005 6.568 7.066 14.097 15.722m-129.12-.492a9748.437 9748.437 0 0016.766 14.338c3.058 2.605 5.574 5.022 5.594 5.377.02.345-10.887 3.25-24.23 6.45-13.345 3.2-24.26 5.613-24.26 5.357 0-1.634 13.653-41.124 14.214-41.124.39 0 5.747 4.323 11.916 9.602m197.986 10.95c3.678 11.306 6.509 20.73 6.287 20.956-.221.222-11.384-2.29-24.806-5.573l-24.408-5.978 17.884-14.979c9.833-8.237 17.987-14.978 18.115-14.978.128 0 3.244 9.252 6.928 20.552m-79.856.035c15.668 6.361 28.627 11.704 28.805 11.876.334.33-22.582 37.486-25.87 41.942-1.704 2.304-2.207 5.101-4.462 24.62-1.398 12.112-2.649 22.127-2.772 22.255-.128.124-5.259-1.999-11.404-4.727-13.634-6.031-12.625-6.026-26.51-.083-6.248 2.673-11.438 4.776-11.537 4.677-.103-.098-1.265-9.946-2.59-21.886l-2.407-21.714-10.449-16.816-13.994-22.551c-1.945-3.142-3.407-5.845-3.245-6.007.261-.256 57.128-23.034 57.714-23.113.128-.015 13.053 5.17 28.72 11.522m-93.588 14.092c-.207.566-2.555 7.209-5.214 14.767-2.66 7.563-5.166 13.747-5.574 13.747-1.625 0-37.51-17.612-36.536-17.937 1.32-.443 46.049-11.4 47.004-11.522.389-.04.532.379.32.945m154.3 5.446c12.31 3.077 22.527 5.741 22.71 5.923.334.335-34.31 16.83-36.334 17.303-.945.222-10.803-25.462-10.803-28.14 0-1.157.743-1.005 24.427 4.914m-147.2 18.908c2.59 13.344 3.245 18.085 2.443 17.775-1.96-.748-15.9-10.355-15.9-10.95 0-1.074 9.336-25.605 9.631-25.31.158.158 1.881 8.48 3.826 18.485m124.004-6.126c2.482 6.677 4.5 12.551 4.48 13.059-.044 1.477-16.381 12.063-16.381 10.616 0-1.93 6.79-36.413 7.105-36.093.158.148 2.314 5.742 4.796 12.418m-111.714 7.367c5.26 8.552 9.277 15.805 8.932 16.12-.674.63-12.6 3.432-12.93 3.043-.113-.133-.596-2.452-1.078-5.16-1.443-8.085-5.023-26.934-5.54-29.135-.728-3.126.217-1.782 10.616 15.132m98.168 1.408c-1.876 9.636-3.545 17.642-3.703 17.805-.275.275-12.777-2.398-13.427-2.871-.172-.123 4.26-7.583 9.848-16.579 5.588-8.99 10.276-16.239 10.424-16.106.147.133-1.27 8.12-3.142 17.75m-107.636 20.79c.896.846-.69 3.742-8.932 16.347-5.51 8.42-10.094 15.215-10.188 15.087-.093-.133.296-9.287.867-20.346.566-11.059 1.058-20.759 1.093-21.567.054-1.329 13.029 6.598 17.16 10.479M284.3 373.172c.483 11.502.69 20.902.463 20.892-.389-.024-19.03-28.952-19.518-30.292-.29-.792 17.17-12.521 17.76-11.935.227.231.813 9.828 1.295 21.335M178.083 361.68c0 .68.753 7.927 1.674 16.101.92 8.174 1.556 15.215 1.413 15.658-.148.433-4.082-5.909-8.75-14.097-4.663-8.184-8.223-15.141-7.912-15.451.531-.532 10.325-3.157 12.546-3.358.566-.055 1.029.462 1.029 1.147m73.445.394c6.19 1.33 7.095 1.699 6.82 2.757-.557 2.152-16.639 29.332-16.9 28.559-.152-.458.483-7.514 1.414-15.678.93-8.164 1.694-15.417 1.694-16.116 0-.827.497-1.118 1.432-.837.793.241 3.285.837 5.54 1.32m-117.814 24.014l-.892 16.051-5.76 11.212c-3.172 6.165-5.895 11.079-6.047 10.921-.158-.152 1.32-6.735 3.28-14.624a3733.372 3733.372 0 006.651-27.263c1.699-7.11 3.22-12.802 3.378-12.645.158.158-.118 7.514-.61 16.348m23.043 11.704c-.915 14.816-1.787 27.057-1.94 27.21-.266.27-14.023-18.12-16.145-21.587-.955-1.561 18.307-33.995 19.489-32.813.142.143-.493 12.379-1.404 27.19m20.277 11.374a1940.118 1940.118 0 00-11.566 11.079l-6.455 6.248.497-7.794c.27-4.29.876-14.999 1.334-23.798.463-8.804 1.054-17.997 1.32-20.434l.473-4.431 9.749 17.155 9.754 17.145-5.106 4.835m97.35-23.576c5.26 8.194 9.75 15.412 9.991 16.037.399 1.034-15.23 22.911-16.751 23.448-.355.128-.71-2.088-.793-4.924-.226-7.652-1.669-35.314-2.265-43.31-.28-3.841-.34-6.796-.123-6.564.212.221 4.688 7.115 9.941 15.313m20.612 11.271c3.402 14.353 6.165 26.52 6.14 27.042-.226 5.032-11.418-22.192-11.803-28.721-1.039-17.53-1.329-25.225-.94-24.831.231.231 3.205 12.162 6.603 26.51m-33.163 1.906c.803 14.796 1.295 27.066 1.089 27.273-.207.207-5.348-4.594-11.424-10.67l-11.05-11.044 9.558-16.633c5.254-9.149 9.735-16.451 9.961-16.23.222.222 1.064 12.507 1.866 27.304m-43.492.605l6.928 2.836-13.88.035c-7.638.02-13.734-.114-13.542-.3.384-.385 12.399-5.299 13.108-5.368.25-.02 3.575 1.231 7.386 2.797m17.588 7.814c.502.818 3.668 39.603 3.274 40.076-.123.138-6.086-2.684-13.255-6.278-15.722-7.869-14.343-7.883-30.607.26-7.179 3.595-12.34 5.752-12.34 5.151-.004-1.98 2.497-33.069 2.94-36.525l.448-3.486h24.521c15.132 0 24.709.31 25.019.802m-90.477 12.945c4.27 5.751 7.992 10.872 8.277 11.374.478.857-19.356 71.382-20.36 72.382-.256.26-.266-2.093-.025-5.23.236-3.131.985-20.286 1.654-38.11 1.33-35.31 2.078-50.88 2.453-50.88.132 0 3.732 4.708 8 10.464m141.277 29.337c.714 21.665 1.483 42.897 1.714 47.186.28 5.298.163 7.272-.374 6.154-.95-1.974-19.716-68.688-19.716-70.086 0-.94 16.5-23.246 16.894-22.847.104.113.773 17.923 1.482 39.588m-105.046-35.9c-.192 1.694-.9 9.7-1.575 17.79-.67 8.095-1.31 14.801-1.419 14.905-.108.098-4.382-3.162-9.493-7.253l-9.296-7.44 10.517-10.537c11.714-11.744 11.749-11.769 11.266-7.465m79.694 18.06c0 .567-4.063 4.21-9.026 8.096l-9.025 7.065-.946-13.018a1528.074 1528.074 0 00-1.418-18.268l-.473-5.249 10.444 10.173c5.746 5.593 10.444 10.635 10.444 11.202m-128.977-16.008c-.123 1.467-.798 19.47-1.507 40.007-1.255 36.52-2.038 49.953-2.683 46.083-.178-1.059-2.866-14.875-5.973-30.706l-5.653-28.775 5.426-10.33c10.301-19.622 10.715-20.272 10.39-16.279m164.128 9.484c3.403 6.681 6.845 13.294 7.657 14.712 1.462 2.546 1.428 2.792-4.663 33.542l-6.14 30.971-.517-6.5c-.29-3.579-.94-21.468-1.448-39.74-.512-18.283-1.137-35.915-1.398-39.185-.616-7.838-.645-7.863 6.51 6.2m-127.215 19.449l8.06 6.42-8.468 8.504-8.47 8.504-.507-5.973c-.99-11.655-.822-25.535.306-24.669.561.439 4.648 3.684 9.08 7.214m93.824-1.034a297.63 297.63 0 00-.62 15.2c-.064 4.629-.404 8.607-.758 8.824-.611.379-16.417-15.88-16.358-16.815.03-.444 17.347-13.915 17.933-13.955.177-.01.089 3.024-.197 6.746m-41.247.808l9.754 4.323-10.37.231c-5.702.128-15.023.128-20.715 0l-10.345-.231 9.321-4.215c11.66-5.269 10.72-5.269 22.355-.109m-66.05 18.14l.084 7.248-3.077-1.851a181.598 181.598 0 01-3.344-2.044c-.142-.103.966-4.564 2.462-9.911l2.728-9.72.532 4.515c.295 2.482.571 7.775.616 11.763m114.21-6.908c3.008 10.37 3.013 10.217-.572 12.33-3.826 2.26-3.614 2.964-3.023-10.055.28-6.19.66-11.099.852-10.912.187.188 1.423 4.072 2.742 8.637m-32.881-1.408c0 .916-25.59 39.228-26.19 39.209-.267-.005-2.394-2.87-4.723-6.357-10.985-16.436-21.015-31.823-21.404-32.847-.364-.95 3.801-1.093 25.94-.901 14.505.128 26.377.531 26.377.896m-44.37 19.548c6.682 10.143 12.015 18.597 11.857 18.78-.162.182-9.922-4.22-21.69-9.79l-21.394-10.118 8.858-8.888c4.875-4.884 9.168-8.779 9.543-8.656.374.123 6.145 8.528 12.826 18.672m58.624-9.966c4.895 4.909 8.519 9.158 8.056 9.444-1.645 1.014-41.538 19.38-42.1 19.38-.635 0 24.044-37.633 24.728-37.707.232-.025 4.427 3.973 9.316 8.883m-99.197 8.306l2.66 1.64-7.81 14.378c-4.294 7.912-7.952 14.23-8.13 14.057-.182-.182 1.01-4.899 2.645-10.488l4.584-15.687c1.763-6.066 2.147-6.312 6.051-3.9m125.324 9.897c5.44 19.189 6.307 22.552 5.485 21.291-1.212-1.87-15.506-28.622-15.506-29.031 0-.69 5.348-3.762 6.116-3.52.423.132 2.181 5.204 3.905 11.265m-95.43 42.828c12.723 25.161 22.93 45.743 22.674 45.743-3.112 0-71.766-47.865-70.934-49.455 1.743-3.349 19.75-36.24 21.828-39.864 2.585-4.52-.3-9.277 26.431 43.576m13.773-31.646l14.939 7.032 18.297-8.445a11070.362 11070.362 0 0124.324-11.202l6.027-2.757-11.67 22.793-20.705 40.425a2177.4 2177.4 0 01-12.713 24.521l-3.678 6.869-10.626-20.818c-17.874-35.024-36.777-72.633-36.777-73.17 0-.502 3.94 1.28 32.582 14.752m80.668 6.943a2347.707 2347.707 0 0112.137 22.847c.128.345-3.378 2.954-7.8 5.81a4906.882 4906.882 0 00-22.393 14.614c-36.092 23.674-41.39 27.097-41.622 26.865-.34-.344 46.856-92.377 47.368-92.372.227 0 5.766 10.01 12.31 22.241m-97.045 58.91c14.56 9.616 26.46 17.716 26.456 17.996-.005.286-5.78 3.615-12.837 7.401l-12.827 6.884-1.516-1.96a163.44 163.44 0 01-3.782-5.22c-1.245-1.797-9.926-14.101-19.292-27.347-9.365-13.245-17.026-24.25-17.026-24.457 0-.202 3.23 1.788 7.179 4.422 3.949 2.64 19.09 12.664 33.645 22.28m96.415-16.11c-25.772 36.299-34.31 48.13-34.748 48.145-.581.023-24.684-13.053-25.482-13.82-.492-.474 65.4-44.247 66.798-44.37.33-.032-2.624 4.49-6.568 10.045m-67.487 52.744v14.427l-3.078-1.88a915.157 915.157 0 01-12.443-7.943l-9.365-6.061 11.827-6.391c6.505-3.516 12.108-6.436 12.443-6.485.34-.054.616 6.401.616 14.329m16.948-8.1c6.48 3.471 11.778 6.524 11.778 6.78 0 .423-22.3 14.816-24.039 15.51-.443.182-.635-5.588-.463-14.156.163-7.952.439-14.457.62-14.457.183 0 5.629 2.846 12.104 6.323" fill="#c0babc" fill-rule="evenodd"/></svg>