<svg id="Layer_1" data-name="Layer 1" xmlns="http://www.w3.org/2000/svg" viewBox="0 0 552.26 729.05"><defs><style>.cls-1{fill:none}.cls-3{fill:#fff}</style></defs><path class="cls-1" d="M237.11 318.68a199.48 199.48 0 0139-20l.69.09c16.35 6.43 32 14.44 45.57 24.95 31 24 52.26 59.25 61.69 96.74L478.84 365V127.47L276.13 8.77 73.42 127.47V365l95 55.63c10.09-40.26 33.76-77.89 68.69-101.95z"/><path d="M486.41 123.13L276.13 0 65.85 123.13v246.16l100.8 59q.81-3.87 1.78-7.73L73.42 365V127.47L276.13 8.77l202.71 118.7V365l-94.79 55.5c.64 2.57 1.24 5.15 1.77 7.73l100.59-58.89z" fill="#8dc63f"/><path class="cls-3" d="M365.61 451.55a23.83 23.83 0 00-9.22-6.88 30.37 30.37 0 00-8.3-2.23 80.41 80.41 0 014 48.11 84.68 84.68 0 01-10.41 25.08 27.48 27.48 0 00-6.45-13.71 33.1 33.1 0 00-4.67-4.5 79.26 79.26 0 01-14.11 31c-13.17 17.81-30.87 27.73-40.42 32.33-9.55-4.6-27.25-14.52-40.42-32.33a79.71 79.71 0 01-14.11-31 34.8 34.8 0 00-4.67 4.5 27.48 27.48 0 00-6.45 13.71A84.68 84.68 0 01200 490.55a80.41 80.41 0 014-48.11 30.65 30.65 0 00-8.3 2.23 23.83 23.83 0 00-9.22 6.88A83.41 83.41 0 01187.7 417c.36-1.53.92-3.3 1.57-5.3a73.29 73.29 0 0118.35-28.79 30.72 30.72 0 00-2.68 10.62 88.84 88.84 0 00-1.45 21.08 86.19 86.19 0 001.45 11.83l.07.42.24-.37q2.46-3.76 4.92-7.51 1.77-2.73 3.56-5.44a111.21 111.21 0 00-1.7 21.91 114.06 114.06 0 0011.36 46.69l.14.59.19-.58q1.35-4.26 2.73-8.51 2.81-8.76 5.58-17.52a223.34 223.34 0 0012.05 26.12c7.57 13.89 23.51 34.77 31.81 44.71l.16.2.14-.16c8.29-9.94 24.23-30.82 31.8-44.73a220 220 0 0012.05-26.1q2.79 8.77 5.59 17.52l2.73 8.51.19.58.13-.59a118.61 118.61 0 0011.12-46 115 115 0 00-1.46-22.61l3.57 5.44 4.91 7.51.24.37.07-.42a86.19 86.19 0 001.45-11.83 89.24 89.24 0 00-1.43-21.07 31.09 31.09 0 00-2.71-10.67 73.19 73.19 0 0118.36 28.83q1 3 1.59 5.3a83.69 83.69 0 011.22 34.52z"/><path class="cls-1" d="M276.17 343.53l-.12-.07"/><path d="M279.43 343.36v.18l.13-.08z" fill="#231f20"/><path class="cls-3" d="M276.05 491.42l-.16-.06h.16z"/><path class="cls-3" d="M414.76 327c-.19-.16-.4-.37-.61-.57s-.54-.52-.75-.69a6.8 6.8 0 00-2.08-1.14l-.2-.08a15.14 15.14 0 00-2.73-2.41c-1.8-1.37-3.84-2.51-5.53-3.95a13.34 13.34 0 00-3.81-2.26 39.44 39.44 0 01-3.6-2 38.12 38.12 0 00-4.1-1.88c-1.36-.52-2.58-1.13-4-1.53s-2.73-.73-4.08-1.08a37.54 37.54 0 00-5.1-.92 83.14 83.14 0 00-9.63-.5c-1.45 0-2.88.29-4.35.28a19.05 19.05 0 00-2 .08c-.65.06-1.31 0-2 .11-1.83.18-3.61.89-5.4 1.13a22.52 22.52 0 00-4.27 1c-1.63.55-3.17 1.32-4.81 1.82-1.46.45-2.76 1.19-4.16 1.77a35.43 35.43 0 00-4.18 2.21c-.79.47-1.59.92-2.4 1.37a22.7 22.7 0 00-3.22 2.54s-.76.71-1.77 1.72c-.64-.75-1.27-1.5-1.88-2.27a81.2 81.2 0 00-10.88-11.48c-1.87-1.6-3.64-3.45-5.49-5.07a20.25 20.25 0 00-4.44-3.47c-1.11-.52-2.71-.27-4-.27a9.21 9.21 0 00-4.2.72 29.19 29.19 0 01-4.2 1.11c-1.18.35-2.31.74-3.5 1.06s-3 .06-3.83.64q-2.87.3-5.73.71c-.06 0-.17.13-.17.13l-4.17.66a9 9 0 01-2.7 0l-4.5-.67c0-.1-.08-.14-.12-.13q-2.85-.4-5.73-.71c-.84-.58-2.75-.35-3.82-.64s-2.33-.71-3.51-1.06a28.72 28.72 0 01-4.19-1.11 9.21 9.21 0 00-4.2-.72c-1.26 0-2.85-.25-4 .27a20.3 20.3 0 00-4.45 3.47c-1.84 1.62-3.61 3.47-5.49 5.07A81.2 81.2 0 00224 319.79q-.88 1.11-1.8 2.19c-1-1-1.67-1.64-1.69-1.64a22.7 22.7 0 00-3.22-2.54c-.81-.45-1.61-.9-2.41-1.37a34.53 34.53 0 00-4.17-2.21c-1.4-.58-2.7-1.32-4.16-1.77-1.64-.5-3.18-1.27-4.81-1.82a22.52 22.52 0 00-4.27-1c-1.79-.24-3.57-1-5.4-1.13-.66-.07-1.31-.05-2-.11a19.05 19.05 0 00-2-.08c-1.47 0-2.9-.29-4.36-.28a83.37 83.37 0 00-9.63.5 37.39 37.39 0 00-5.09.92c-1.35.35-2.73.7-4.08 1.08s-2.66 1-4 1.53a36.42 36.42 0 00-4.1 1.88 39.44 39.44 0 01-3.6 2 13.34 13.34 0 00-3.81 2.26c-1.69 1.44-3.74 2.58-5.54 3.95a15.42 15.42 0 00-2.72 2.41l-.2.08a7 7 0 00-2.09 1.14c-.21.17-.47.42-.75.69a8 8 0 01-.61.57l-1.81 1.46 1.47 1.8.31.39.2.25c.5.64 1.11 1.42 1.67 2a8.79 8.79 0 002.69 2.65c.35.25.68.49.92.7a35.27 35.27 0 003.39 2.61c.92.65 1.8 1.4 2.72 2.2a30.35 30.35 0 004.33 3.28c.69.41 1.4.76 2.08 1.11s1.25.63 1.81 1a28.86 28.86 0 004.31 2.15c1.2.44 2.4.92 3.6 1.41 1.42.57 2.88 1.16 4.34 1.68a58 58 0 007.94 2l.75.16a41.19 41.19 0 004.34.55 29.18 29.18 0 014.21.56 18.18 18.18 0 004.74.67h2.41a10.37 10.37 0 001.55-.11c2.5-.43 4.84-1 7.59-1.67 1.49-.38 3-.67 4.51-1l.85-.16c.62-.13 1.23-.29 1.83-.46a17.78 17.78 0 011.91-.44 8.67 8.67 0 001.83-.49 21.62 21.62 0 01.51 3.19v4.58a14.6 14.6 0 01-1 4.22c-.4 1.35-.78 2.93-1.25 4.25a33 33 0 00-1.28 4.44 27.77 27.77 0 00-.24 5.7c0 3.5 1.55 7 2.75 10.26 1.31 3.61 3.89 6.72 5.82 10a14.07 14.07 0 011.4 4.22c.38 1.73 17.36 28.71 19.19 32.12.53 1 .94 2.07 1.46 3.1a40.19 40.19 0 011.95 3.88 52 52 0 012.71 8.6c.32 1.62.74 3.16 1.16 4.77a48.13 48.13 0 011.33 5.12 26.4 26.4 0 001.05 4.43c.65 1.92.89 3.93 1.77 5.78s1.28 3.64 2.08 5.39a16 16 0 001.94 3.21 27.75 27.75 0 012.51 3.47 8 8 0 002.6 2.48c.91.66 1.8 1.41 2.66 2.11a21.42 21.42 0 002.47 1.47c.72.45 1.45.93 2.14 1.41a9.47 9.47 0 002.12.84 6.2 6.2 0 002.58.61l.75.13c.42.07.84.13 1.26.17s1 .07 1.52.07h.33c.38 0 .75 0 1.13-.05.55-.05 1.09-.12 1.63-.21l.67-.12 2-.35.67-.25a9.47 9.47 0 002.12-.84c.69-.48 1.42-1 2.14-1.41a19.85 19.85 0 002.47-1.47c.87-.7 1.76-1.45 2.66-2.11a8.15 8.15 0 002.61-2.48 25.85 25.85 0 012.51-3.47 15.91 15.91 0 001.93-3.21c.8-1.75 1.27-3.66 2.09-5.39s1.11-3.86 1.76-5.78a26.4 26.4 0 001.05-4.43c.27-1.71.89-3.45 1.33-5.12s.85-3.15 1.17-4.77a50.13 50.13 0 012.63-8.51 40.1 40.1 0 011.94-3.88c.53-1 .93-2.1 1.47-3.1C314 431 331 404 331.38 402.29a14.65 14.65 0 011.4-4.22c1.93-3.32 4.51-6.43 5.82-10 1.21-3.3 2.75-6.76 2.75-10.26a28.49 28.49 0 00-.23-5.7 34.55 34.55 0 00-1.28-4.44c-.48-1.32-.86-2.9-1.26-4.25a14.59 14.59 0 01-1-4.22v-4.58a20.83 20.83 0 01.52-3.24 8.8 8.8 0 002 .54 17.93 17.93 0 011.92.44c.6.17 1.21.33 1.83.46l.85.16c1.55.31 3 .6 4.51 1 2.75.69 5.09 1.24 7.59 1.67a10.37 10.37 0 001.55.11h2.41a18.1 18.1 0 004.73-.67 29.37 29.37 0 014.21-.56 41 41 0 004.35-.55l.75-.16a58.78 58.78 0 007.94-2c1.46-.52 2.92-1.11 4.34-1.68 1.2-.49 2.4-1 3.59-1.41a28.51 28.51 0 004.32-2.15c.56-.33 1.16-.64 1.81-1s1.39-.7 2.08-1.11a29.7 29.7 0 004.32-3.28c.93-.8 1.81-1.55 2.73-2.2a35.27 35.27 0 003.39-2.61c.24-.21.57-.45.92-.7a8.9 8.9 0 002.69-2.65c.55-.6 1.17-1.38 1.67-2l.19-.25.31-.39 1.48-1.8zm-202.11 20a5.64 5.64 0 01-1.17.35 18.08 18.08 0 00-2.46.56c-.5.13-1 .27-1.51.37l-.84.17c-1.55.31-3.15.62-4.76 1-2.64.67-4.87 1.19-7.22 1.59a9.31 9.31 0 01-1.77 0h-1.53a14.72 14.72 0 01-3.56-.55 34.28 34.28 0 00-4.87-.66 36.06 36.06 0 01-3.83-.48l-.75-.15a57.19 57.19 0 01-7.32-1.84c-1.36-.48-2.78-1.05-4.15-1.61-1.22-.49-2.49-1-3.74-1.46a24.23 24.23 0 01-3.56-1.8c-.69-.4-1.39-.75-2.07-1.1s-1.25-.63-1.82-1a26.31 26.31 0 01-3.65-2.8 39 39 0 00-3.09-2.48 33.65 33.65 0 01-3-2.28 14.89 14.89 0 00-1.29-1 6 6 0 01-1.38-1.19l-.17-.38-.29-.29c-.21-.22-.47-.53-.75-.86l.44-.18.8-.31c.76-.29 1.47-.56 2.17-.78a37.37 37.37 0 015.47-1.37 16.45 16.45 0 003.41-1l.88-.32a8.35 8.35 0 012.22-.42c1.76-.14 3.5-.36 5.19-.57 1.32-.17 2.64-.33 4-.46.86-.08 1.66-.22 2.43-.36a21.86 21.86 0 012.32-.32c.83-.06 1.65-.16 2.47-.26s1.82-.23 2.71-.27a57.67 57.67 0 019.83.12c1.46.19 2.6.38 3.57.6.57.13 1.14.23 1.7.34a23.31 23.31 0 013.17.77c.57.2 1.12.43 1.67.66s1.29.53 2 .77l1 .34a13.14 13.14 0 012.41 1 21.75 21.75 0 015.32 4l.9 1.06 1 1.23a10.22 10.22 0 01.95 1.39c.27.45.58.95 1 1.46l.27.35a9.07 9.07 0 00.53 6.43 11.77 11.77 0 00.65 1.63 18.56 18.56 0 01.62 2.14zm29.76 46.65a2.9 2.9 0 01-.68.07c-1.25 0-2.49.26-3.73.21-.61 0-1.24.15-1.86.12a11 11 0 01-1.61-.18c-.47-.09-1-.11-1.42-.21s-.83-.26-1.25-.37a18.42 18.42 0 01-2-.65 13.28 13.28 0 01-3.71-2c-.53-.41-1-.87-1.57-1.26a9.39 9.39 0 01-1.7-1.18 24.08 24.08 0 01-3.67-6.51c-.42-1-1-1.87-1.4-2.86-.22-.51-.46-1-.67-1.54a9.74 9.74 0 00-.59-1.5c-.05-.64-.46-2.23-.54-2.59-.28.81-.41.19-.55-.12a6.53 6.53 0 01-.41-1 11 11 0 001.87-.49l2-.36a30.57 30.57 0 015 .09 22.2 22.2 0 017.9 2.17 26 26 0 013.15 2.14 13.12 13.12 0 013.61 3.06c.65.91 1.25 1.81 1.83 2.76.86 1.45 1.81 2.94 2.54 4.45a19.1 19.1 0 011.27 3.73c.12.5.29 1 .45 1.47a10.73 10.73 0 00.59 1.73l2.27 2.05zm43.41-42.37c.86 1.6 2 3.42 1.83 5.26-.88-1.68-1.21-3.49-2-5.18a9.67 9.67 0 01-1.61-2.92 6.44 6.44 0 011.78 2.8zm-8.93-7.56s9 7.16 9 17.57c0 9.46-9 17.88-9 17.88s-9-8.42-9-17.88c.03-10.45 9-17.61 9-17.61zm-12.27 16.53h.05a19.89 19.89 0 001.54 9.31c1.23 3 4.05 5.1 5.64 7.77-4.47-4.26-9.03-10.68-7.23-17.12zm26.84 120.15a6.15 6.15 0 01-1.81.64l-2.87.58a.76.76 0 00-.38.15.54.54 0 00-.11.32c-.11 1.26.23 3.49-.87 4.45a16.53 16.53 0 01-2.32 1.71 2.06 2.06 0 01-.6.28 2.65 2.65 0 01-.69.06h-3.55l-2.13-.6-2.13.6h-3.55a2.65 2.65 0 01-.69-.06 2 2 0 01-.6-.28 16.53 16.53 0 01-2.32-1.71c-1.1-1-.76-3.19-.87-4.45a.54.54 0 00-.11-.32.76.76 0 00-.38-.15l-2.87-.58a6 6 0 01-1.81-.64 4.57 4.57 0 01-1-2.49 16 16 0 011.55-6.86c.69-1.44 1.66-3.45 3.65-3.85a7.94 7.94 0 013.18-.14 18.52 18.52 0 012.82 1.1c.36.13 5.17.88 5.17.81s4.81-.68 5.17-.81a18.82 18.82 0 012.81-1.1 8 8 0 013.19.14c2 .4 3 2.41 3.65 3.85a16 16 0 011.55 6.86 4.57 4.57 0 01-1.08 2.49zm45.37-107.35c-.14.31-.28.93-.55.12a24.11 24.11 0 00-.54 2.59 8.06 8.06 0 00-.59 1.5c-.21.51-.46 1-.67 1.54-.41 1-1 1.89-1.4 2.86a23.85 23.85 0 01-3.68 6.51 8.74 8.74 0 01-1.7 1.18c-.53.39-1 .85-1.56 1.26a13.42 13.42 0 01-3.71 2 18.42 18.42 0 01-2 .65c-.43.11-.83.27-1.25.37s-1 .12-1.42.21a11 11 0 01-1.62.18c-.61 0-1.24-.15-1.85-.12-1.25.05-2.48-.25-3.74-.21a2.07 2.07 0 01-.5 0l-5.2 1.31 2.15-2a7.4 7.4 0 00.72-1.93c.17-.5.34-1 .46-1.47a18.46 18.46 0 011.27-3.73c.73-1.51 1.67-3 2.54-4.45.58-.95 1.17-1.85 1.83-2.76a13 13 0 013.61-3.06 25.28 25.28 0 013.15-2.14 22.21 22.21 0 017.89-2.17 18.54 18.54 0 012.88-.15 18.32 18.32 0 012.08.06l1.95.36a11.34 11.34 0 001.88.49 7.77 7.77 0 01-.43 1zM409.37 330l-.28.29-.17.38a6 6 0 01-1.39 1.19c-.42.31-.87.63-1.28 1a35.19 35.19 0 01-3 2.28 37.21 37.21 0 00-3.09 2.48 26.38 26.38 0 01-3.66 2.8c-.56.33-1.17.64-1.82 1s-1.37.7-2.06 1.1a24.23 24.23 0 01-3.56 1.8c-1.26.46-2.52 1-3.74 1.46-1.37.56-2.79 1.13-4.15 1.61a57.19 57.19 0 01-7.32 1.84l-.75.15a36.06 36.06 0 01-3.83.48 34.28 34.28 0 00-4.87.66 14.72 14.72 0 01-3.57.55h-1.53a9.2 9.2 0 01-1.76 0c-2.35-.4-4.59-.92-7.23-1.59-1.6-.41-3.2-.72-4.75-1l-.84-.17c-.51-.1-1-.24-1.52-.37a17.74 17.74 0 00-2.46-.56 6 6 0 01-1.17-.35l-.69-.24c.07-.3.15-.6.23-.89s.32-.77.51-1.15a10.37 10.37 0 001-2.82 8.9 8.9 0 00.14-5.16l.38-.49c.37-.51.68-1 .95-1.46a11.2 11.2 0 01.94-1.39l1-1.23.91-1.06a21.75 21.75 0 015.32-4 13.14 13.14 0 012.41-1l1-.34c.67-.24 1.31-.51 1.95-.77s1.11-.46 1.68-.66a23 23 0 013.17-.77c.56-.11 1.12-.21 1.69-.34 1-.22 2.12-.41 3.58-.6a57.66 57.66 0 019.83-.12c.88 0 1.77.15 2.71.27s1.63.2 2.47.26a22.21 22.21 0 012.32.32c.77.14 1.57.28 2.43.36 1.33.13 2.66.29 4 .46 1.69.21 3.43.43 5.19.57a8.19 8.19 0 012.21.42l.89.32a16.27 16.27 0 003.41 1 37.37 37.37 0 015.47 1.37c.7.22 1.41.49 2.16.78l.81.31.43.18c-.22.29-.48.6-.7.84z"/><path class="cls-3" d="M195.16 230.89l-13.32 12.46v23.06c-.26 3.85 0 7.66 0 11.5 0 4.37 3.57 9.88 5.78 13.46a133.32 133.32 0 009.51 12.92 9 9 0 001.83 1.86 8.71 8.71 0 002.09.93l20.95 7.11c-2.25-1.16-4.5-2.33-6.67-3.64-9.44-5.73-16.36-15.05-23.54-23.22-2.74-3.13-5.82-7.11-6.17-11.38-.1-1.21 0-2.46 0-3.67V245l13.32-12.46v-16l33.25-42.46v-22.59a4.32 4.32 0 002.73-3.94 4.63 4.63 0 00-9.24 0 4.32 4.32 0 002.73 3.94v21.25l-29.47 37.64v-59l7.63-7.14V102.5a4.31 4.31 0 002.73-3.94 4.63 4.63 0 00-9.24 0 4.31 4.31 0 002.73 3.94v40.08l-7.63 7.14v33.79l-16.46-15.4v-67.18l7.11-12.73h.27a4.34 4.34 0 10-4.62-4.33 4.15 4.15 0 001 2.62L174.92 100v69.8l20.24 18.94z"/><path class="cls-3" d="M235.52 322.12h-1.15l-2.23-.4-4.95-2.17-.48-.17-1.13-.41-7.05-2.5-7.25-2.64-10.59-3.27-.35-.12-.92-.4-6.12-2.74-6-2.89-3.88-2.87-3.42-4.36-2.44-5.53-2.56-6.88-1.95-7.11-1.56-7.73-.78-4.74a44.12 44.12 0 01-.22-14.42l3.51-13.45 3.95-9.73v-28.9l-7-6.59a4.12 4.12 0 00.3-1.49 4.63 4.63 0 10-4.62 4.33 4.62 4.62 0 001.54-.27l6 5.66v26.52L170.4 236l-.61 2.38a2.54 2.54 0 00-.48 1.33l-.93 3.54-1.17 4.85-.31 1.6a.59.59 0 000 .13l-.67 3.42-1 6.66c-.85 5.51-.09 11.41.77 16.89l.91 5.75 1.17 5.25.75 3.31 1.66 4.69 1.9 4.42.9 1.86a7.1 7.1 0 001.32 1.9c.33.32 1.47 1.46 1.76 1.67a7.41 7.41 0 01-2-1.43 12.29 12.29 0 00-2.66-1l-2.95-.22-2.91-.47-2.7-1-1.46-1.38-2.2-3-2.49-3.89-2.61-5.76-1.26-3.82-.82-5.95.08-4.13 1.21-6.11c2.47-6.51 5.44-11.16 4-18.37s-4.46-14.05-8-20.58a6.22 6.22 0 00-.69-1.06l-2.42-6.18 9-8.47v-83.21a4.32 4.32 0 002.73-3.94 4.63 4.63 0 00-9.24 0 4.32 4.32 0 002.73 3.94v81.57l-6.71 6.32-4.62-11.78v-23a4.34 4.34 0 002.82-4 4.63 4.63 0 00-9.24 0 4.31 4.31 0 002.64 3.9v23.83l10.89 27.8s2.83 7.09 3 7.87a19.75 19.75 0 01.14 8.45c-1.06 5.24-3.33 10.83-7 14.81a6.85 6.85 0 01-2.35 1.76c-2.33 1-4.93-.23-7.11-1.7-3.51-2.38-6.1-5.57-8.94-8.88l-2.23-3.96-1.15-3.89-1.06-5.63-1-5.92-.57-4.69-.22-4.38-.16-5.9v-5.92l.51-4c0-.21.09-.42.13-.63l8.25-20.7.21-68.27a4.33 4.33 0 002.79-4 4.63 4.63 0 00-9.24 0 4.29 4.29 0 002.67 3.9l-.21 67.61-6.5 16.32c0-6.79-.06-13.42-.06-19.06l-.51-.48-8.61-8c0-11.9-.06-30 0-41.49v-.68l-.5-.47-6.18-5.83a4 4 0 00.24-1.3 4.64 4.64 0 10-4.62 4.32 4.85 4.85 0 002.28-.58l5.63 5.23V180.35l.5.47 8.58 8.06c0 7.21 0 14.42-.06 21.63v4.62l-.07 8.12-.55 4v1.33L105 222c-3.68-2.93-7.38-5.83-11-8.78l.15-9.74a4.26 4.26 0 002.32-3.73 4.63 4.63 0 00-9.24 0 4.26 4.26 0 002.32 3.73l.16 10.75v1.08l.81.61c6.88 5.24 15.42 11.78 22.88 17.5l2.07 17 1.2 6.49 1.7 4.62 4.11 6.28 6 7 6 5 4.7 7.15c6.51 9.91 11 22.61 21.69 27.62l7.73 1.33 8.24 1 9.58 2.46c10 3.6 19.81 6.42 27.6 13.58 4.59 4.21 9.71 7.92 14.71 11.74 1.82.62 7.76-6.07 9.29-4.73a3 3 0 01.77.92 4 4 0 01.16 1.85q-.06 1.05 0 2.1a2.12 2.12 0 00.18 1 1.87 1.87 0 00.55.57c1.24.95 2.62 2 3.87 2.92L256.82 337l-17.11-15zM460.45 196.05a4.47 4.47 0 00-4.63 4.31 4.27 4.27 0 002.31 3.74l.11 9.73c-3.67 2.94-7.38 5.83-11.07 8.75l-8.27 6.51-.71-5.62v-12.33c-.05-7.22 0-14.43 0-21.64l8.61-8 .51-.47v-21.78c0-5 0-15 .08-20.4l5.61-5.25a4.79 4.79 0 002.27.59 4.33 4.33 0 10-4.6-4.34 4.09 4.09 0 00.23 1.3l-6.2 5.81-.5.47v.68c0 11.52-.11 29.58-.16 41.48l-8.64 8-.51.47c0 5.64-.07 12.27-.13 19.06l-6.44-16.34v-67.61a4.28 4.28 0 002.68-3.9 4.63 4.63 0 00-9.24 0 4.32 4.32 0 002.78 4v68.27l8.28 21c.11.54.22 1.07.32 1.61l.46 4-.11 5.92-.22 5.9-.22 4.38-.63 4.68-1.09 5.91-1.13 5.62-1.19 3.87-2.32 3.91c-2.87 3.28-5.5 6.44-9 8.78-2.19 1.45-4.81 2.6-7.13 1.62a6.75 6.75 0 01-2.33-1.79c-3.85-4.29-6.78-12.16-7.19-17.71-.39-5.18 2.11-9.93 3.71-14.81l10.86-27.42.08-23.84a4.31 4.31 0 002.66-3.88 4.63 4.63 0 00-9.24 0 4.32 4.32 0 002.8 4l-.08 23-4.66 11.71-6.72-6.34.29-81.57a4.31 4.31 0 002.74-3.93 4.63 4.63 0 00-9.24 0A4.31 4.31 0 00397 130l-.29 83.22 9 8.5c-3.76 9.48-9.11 18.67-11.22 28.71-1.52 7.2 1.4 11.88 3.8 18.42l1.11 6.15v4.12l-.88 5.94-1.31 3.81-2.67 5.73-2.5 3.91-2.23 3-1.48 1.36-2.71.94-2.92.43-3 .19a12.11 12.11 0 00-2.67 1 7.88 7.88 0 01-2 1.4c.29-.21 1.45-1.33 1.78-1.65a6.89 6.89 0 001.34-1.89l.93-1.85 1.95-4.39 1.71-4.67.78-3.31 1.24-5.23 1-5.74.83-5.68.14-4.12a77.11 77.11 0 00-1-13.75l-.78-4.27h.06l-.22-.88-1.12-4.86-.89-3.56a2.53 2.53 0 00-.36-1.18l-.77-3.13-3.65-9.46.19-26.53 6.06-5.6a4.72 4.72 0 001.47.25 4.34 4.34 0 10-4.61-4.35 4.21 4.21 0 00.31 1.56l-7 6.47-.21 28.91 3.89 9.75s3.32 13.48 3.34 13.48l.52 3.35.26 2-.25 4-.79 5.85-.83 4.72-1.64 7.72-2 7.09-2.62 6.84-2.5 5.51-3.5 4.32-3.91 2.83-6 2.82-6.18 2.72-.92.4-.36.1-10.62 3.16-7.28 2.55-7.08 2.43-1.13.39-.49.16-5 2.12-2.23.37h-1.15l-4.19-.16-17.28 14.75 13.22 12.44c1.25-.94 2.65-1.95 3.9-2.88a1.84 1.84 0 00.55-.56 2.13 2.13 0 00.2-1v-2.11a3.91 3.91 0 01.19-1.84 2.76 2.76 0 01.78-.91c1.54-1.32 7.4 5.43 9.23 4.84 5-3.77 10.2-7.42 14.84-11.58 7.88-7.06 17.76-9.77 27.75-13.26l9.62-2.35 8.24-.9 7.75-1.25c10.77-4.88 15.39-17.53 22-27.36l4.77-7.1 6-4.91 6-6.9 4.18-6.23 1.76-4.6 1.27-6.48 2.48-17.66v-.78c7.42-5.66 15.89-12.1 22.73-17.27l.81-.6v-1.08l.2-10.75a4.26 4.26 0 002.34-3.72 4.47 4.47 0 00-4.63-4.34z"/><path class="cls-3" d="M320.24 151.64l-.08 22.56 33.1 42.58-.06 16 13.27 12.51-.1 30-.17 1.47-.71 3.22-.91 1.88-2.5 3.87-4.08 4.51-4.77 5.2-3.6 4.31-4.32 4.89-3.66 3.15-5.25 3.13-3.65 2.1-2.6 1.12-.74.73 23.39-7.78 1.12-1.33 4.2-5.16 5.45-7.54 2.84-4.37 1.6-3.77 1.26-3.43.9-3.24v-3.8l.06-.41v-3.2l.09-27.16L357 231.17l.15-42.19 20.31-18.88.24-69.79-7.46-13.46a4.14 4.14 0 001-2.61 4.64 4.64 0 10-4.64 4.31 2.48 2.48 0 00.27 0l7.07 12.76-.24 67.17-16.54 15.32.12-33.79-7.61-7.17.14-40.08a4.32 4.32 0 002.75-3.93 4.63 4.63 0 00-9.24 0 4.33 4.33 0 002.71 4l-.14 41.71 7.6 7.17-.21 59-29.34-37.74.08-21.25a4.32 4.32 0 002.74-3.93 4.63 4.63 0 00-9.24 0 4.3 4.3 0 002.72 3.85zM22.07 606.89H2.52C.52 606.9 0 608 0 609.83v60.39c0 2.31 1 2.89 2.52 2.83l8.59-.29c1.57 0 2.52-.68 2.52-3v-16.6L22 653c14.85-.36 22.85-9.58 22.85-23.26S37 606.9 22.07 606.89zM22 639.55l-8.34.14v-18.7l8.34-.06c6.77 0 9.73 4.09 9.73 9.24-.03 4.96-2.98 9.26-9.73 9.38zM72.39 605.4c-10.86.47-21.12 6.75-21.12 19.55 0 8.28 3.55 12.74 8.5 15.68l25.81-5.56c-1.41-.56-2.81-1-4.08-1.43-3.48-1.51-16.25-3.53-16.25-9.49 0-4.4 4.78-5.69 7.65-5.7 2.61 0 5.74.84 7.38 2.58a8 8 0 011.83 2.9c.43 1.26.69 2.61 2.34 2.6l8.52-.06c2 0 2.52-.41 2.52-2.73.01-12.74-12.07-18.33-23.1-18.34zm20.13 33.9l-23.81 5.12c7.2 2.33 14.52 2.44 14.52 7.73s-3.83 6.67-8.52 6.77c-3.21.06-6.77-.74-8.51-3a7 7 0 01-1.65-4c-.17-2.45-1.13-2.72-3.13-2.68-2.81 0-5.61.09-8.42.15-2 0-2.52.54-2.52 2.8 0 13.78 12.5 20.49 23.36 20.19C87.22 672 97 665.22 97 651.53c0-5.87-1.89-9.66-4.48-12.23zM150.68 606.82h-9.39c-2 0-2.87.28-4 2.86q-4.92 10.24-9.84 20.56-5.07-10.23-10.15-20.54c-1.21-2.58-2.08-2.87-4.08-2.87h-10c-1.65 0-1.83 1.64-1.39 2.7q9.29 18.45 18.57 36.66v20.88c0 2.2.87 2.76 2.52 2.73l8.69-.16c1.57 0 2.52-.62 2.52-2.81v-20.8q9-18.37 17.92-36.56c.45-1.03.28-2.65-1.37-2.65zM201.07 647.15l-8.52.06c-1.91 0-2.08 1.52-2.34 3.41-.7 4.52-4.44 6.44-9.13 6.49-5.74.06-9.65-3.31-9.64-9.36v-19.66c0-6 3.92-9.47 9.65-9.48 4.69 0 7.12 1.4 8.95 4.5.69 1.13.78 2.92 2.61 2.91h8.33c2 0 2.7-.47 2.7-2.73-1.12-11.93-11.81-17.86-22.58-17.86-10.34 0-23.29 6.53-23.29 21.43v22.38c0 14.9 12.93 21.24 23.27 21.11 10.78-.14 22.6-7.87 22.6-20-.01-2.28-.68-3.21-2.61-3.2zM258.7 606.8h-8.61c-1.56 0-2.52.56-2.52 2.72v21.15h-19.38v-21.19c0-2.16-.87-2.72-2.52-2.72h-8.6c-1.57 0-2.52.56-2.52 2.72v56.32c0 2.16.95 2.71 2.52 2.7l8.59-.06c1.66 0 2.53-.58 2.53-2.73v-21.13q9.69 0 19.38-.06v21.15c0 2.15 1 2.71 2.52 2.71h8.6c1.56 0 2.52-.57 2.52-2.71v-56.16c0-2.15-.95-2.71-2.51-2.71zM319 626.57c0-14.81-13-21.18-23.38-21.17s-23.19 6.36-23.19 21.13v22.07c0 14.77 12.86 21.13 23.2 21.16S319 663.49 319 648.68v-22.11zm-23.37 30.19c-5.65 0-9.64-3.48-9.64-9.46v-19.46c0-6 4-9.44 9.64-9.44s9.74 3.47 9.74 9.46v19.47c0 5.99-3.99 9.44-9.73 9.43zM352.21 606.81h-19.55c-2 0-2.52 1-2.52 2.71v56.28c0 2.15.95 2.72 2.52 2.73l8.6.07c1.56 0 2.52-.54 2.52-2.7v-15.6l8.34.06c14.86.11 22.84-8.5 22.84-21.64s-7.81-21.92-22.75-21.91zm-.08 30.85h-8.34v-17.61h8.34c6.77 0 9.73 4 9.73 8.88 0 4.73-2.95 8.76-9.73 8.73zM429.64 627c0-15.14-13-21.64-23.38-21.63s-23.19 6.44-23.18 21.37v22.32c0 14.94 12.87 21.55 23.21 21.74s23.38-6.07 23.36-21.21q0-11.26-.01-22.59zm-23.35 30.58c-5.65-.08-9.65-3.64-9.65-9.71v-19.74c0-6.06 4-9.56 9.64-9.54s9.73 3.55 9.74 9.66v19.83c-.02 6.14-4.02 9.61-9.73 9.53zM494.55 609.61c0-1.76-.52-2.84-2.52-2.84h-8.34c-2.87 0-3.3 2.15-3.91 3.31q-6 12-12 23.83-5.94-12-11.91-23.87c-.7-1.16-1-3.28-4-3.28h-8.6c-2 0-2.52 1.06-2.52 2.79v57.73c0 2.2.95 2.8 2.52 2.84 2.87 0 5.73.11 8.6.18 1.56 0 2.52-.52 2.52-2.74v-32.72q4.4 8.49 8.79 17c.43.78 1.13 2 2.43 2.07l4.39.09c1.31 0 2.09-1.22 2.52-2l8.68-16.9v33c0 2.24 1 2.85 2.52 2.89l8.34.22c1.57 0 2.52-.52 2.52-2.77q-.02-29.38-.03-58.83zM529.49 606.89H510c-2 0-2.52 1.08-2.52 2.85v59.12c0 2.27 1 2.88 2.52 2.93l8.6.26c1.56.05 2.52-.52 2.52-2.8v-16.47l8.33.19c14.86.36 22.85-8.7 22.85-22.71s-7.86-23.38-22.81-23.37zm-.08 32.64l-8.33-.13v-18.54l8.34.06c6.78.05 9.73 4.27 9.73 9.47-.01 5.01-2.96 9.26-9.74 9.14z"/><path class="cls-3" d="M410.59 634.6a4 4 0 00-4.25-4.22 3.91 3.91 0 00-4.21 4.17v8.61a4 4 0 004.21 4.24 3.89 3.89 0 004.25-4.15c.01-2.88 0-5.77 0-8.65zM300 634a4 4 0 00-4.25-4.22 3.9 3.9 0 00-4.2 4.17v8.61a4 4 0 004.21 4.24 3.89 3.89 0 004.25-4.15c-.01-2.85-.01-5.74-.01-8.65zM201.5 639.68c2.71 0 4.29-1.32 4.29-3.21s-1.54-3.17-4.24-3.17h-8.77c-2.69 0-4.27 1.32-4.31 3.18s1.51 3.21 4.22 3.21zM92.15 636.52l-2.51.54M63.8 642.63l-5.41 1.16M68.71 644.42l-9.71 2.1a2.38 2.38 0 01-.59.07 2.8 2.8 0 01-.59-5.53l2-.43a32.81 32.81 0 004 2c1.4.58 2.84 1.11 4.31 1.61z"/><path class="cls-3" d="M92.52 639.3l-23.81 5.12-.6-.19c-1.47-.5-2.91-1-4.31-1.61a32.81 32.81 0 01-4-2l25.81-5.56a23.81 23.81 0 014.06 2 16.06 16.06 0 012.85 2.24z"/><path class="cls-3" d="M92.74 639.25h-.22a16.06 16.06 0 00-2.88-2.24 23.81 23.81 0 00-4.06-2l6-1.29a2.8 2.8 0 111.18 5.47zM8.91 704.7h114.97v3.05H8.91zM427.34 704.7h114.97v3.05H427.34zM165.11 729.05c-7.8 0-17.56-4.34-17.56-14.2V700c0-9.86 9.76-14.2 17.56-14.2 8.12 0 16.18 4 17 11.94 0 1.5-.52 1.82-2 1.82h-6.29c-1.38 0-1.44-1.2-2-2-1.38-2.07-3.21-3-6.75-3-4.33 0-7.27 2.32-7.27 6.28V714c0 4 2.94 6.28 7.27 6.28 3.54 0 6.35-1.25 6.88-4.27.19-1.25.32-2.26 1.77-2.26h6.41c1.45 0 2 .63 2 2.14.01 8.11-8.9 13.16-17.02 13.16zM227.48 714.85c0 9.93-9.83 14.2-17.63 14.2s-17.49-4.27-17.49-14.2V700c0-9.93 9.7-14.2 17.49-14.2s17.63 4.27 17.63 14.2zm-10.29-13.94c0-4-3-6.35-7.34-6.35s-7.27 2.33-7.27 6.35V714c0 4 3 6.35 7.27 6.35s7.34-2.33 7.34-6.35zM279.22 688.53v37.75c0 1.45-.72 1.83-1.9 1.83H271c-1.18 0-1.9-.38-1.9-1.83V705l-6.54 11a2.41 2.41 0 01-1.9 1.32h-3.28a2.26 2.26 0 01-1.83-1.32L249 705v21.29c0 1.45-.72 1.83-1.9 1.83h-6.49c-1.18 0-1.9-.38-1.9-1.83v-37.76c0-1.13.4-1.82 1.9-1.82h6.49c2.23 0 2.49 1.38 3 2.14l9 15.45 9-15.45c.46-.76.79-2.14 2.94-2.14h6.29c1.5 0 1.89.69 1.89 1.82zM315.07 721.32v5c0 1.13-.4 1.83-1.9 1.83h-18.55c-1.5 0-1.9-.7-1.9-1.83v-5c0-1.13.4-1.82 1.9-1.82h4.13v-24h-4c-1.51 0-1.9-.7-1.9-1.83v-5.07c0-1.13.39-1.83 1.9-1.83H313c1.5 0 1.9.7 1.9 1.83v5.08c0 1.13-.4 1.83-1.9 1.83h-4v24h4.14c1.53-.01 1.93.68 1.93 1.81zM344.56 729.05c-7.8 0-17.56-4.34-17.56-14.2V700c0-9.86 9.76-14.2 17.56-14.2 8.12 0 16.17 4 17 11.94 0 1.5-.53 1.82-2 1.82h-6.28c-1.38 0-1.44-1.2-2-2-1.37-2.07-3.21-3-6.74-3-4.33 0-7.28 2.32-7.28 6.28V714c0 4 3 6.28 7.28 6.28 3.53 0 6.35-1.25 6.87-4.27.2-1.25.33-2.26 1.77-2.26h6.42c1.44 0 2 .63 2 2.14-.01 8.11-8.92 13.16-17.04 13.16zM404.71 715.86c0 8.92-7.34 13.19-17.43 13.19-8.19 0-17.62-4.52-17.62-13.32 0-1.44.39-1.76 1.9-1.76h6.35c1.51 0 2.23.19 2.36 1.76a4.25 4.25 0 001.25 2.58c1.31 1.5 4 2.07 6.41 2.07 3.54 0 6.42-.75 6.42-4.27s-5.83-3.58-11.4-5.28c-6.61-2-12.7-4.52-12.7-12.5 0-8.16 7.73-12.18 15.92-12.5 8.32 0 17.42 3.65 17.42 11.94 0 1.5-.39 1.76-1.9 1.76h-6.42c-1.24 0-1.44-.88-1.77-1.7a5 5 0 00-1.37-1.88 8.94 8.94 0 00-5.57-1.7c-2.16 0-5.76.82-5.76 3.64 0 3.83 9.62 5.22 12.24 6.22 4.72 1.38 11.67 3.2 11.67 11.75z"/></svg>